<svg xmlns="http://www.w3.org/2000/svg" xmlns:xlink="http://www.w3.org/1999/xlink" width="777.683" height="425.5" viewBox="0 0 777.683 425.5">
  <defs>
    <linearGradient id="linear-gradient" x1="0.994" y1="0.472" x2="0" y2="0.594" gradientUnits="objectBoundingBox">
      <stop offset="0" stop-color="#80909b"/>
      <stop offset="0.833" stop-color="#80909b"/>
      <stop offset="1" stop-color="#fbfdfe"/>
    </linearGradient>
    <linearGradient id="linear-gradient-2" y1="0.396" x2="0.981" y2="0.114" gradientUnits="objectBoundingBox">
      <stop offset="0" stop-color="#80909b"/>
      <stop offset="0.829" stop-color="#80909b"/>
      <stop offset="1" stop-color="#f7fbfe"/>
    </linearGradient>
    <clipPath id="clip-path">
      <rect id="Rectangle_217" data-name="Rectangle 217" width="32.899" height="26.926" fill="none"/>
    </clipPath>
    <clipPath id="clip-path-2">
      <rect id="Rectangle_221" data-name="Rectangle 221" width="32.897" height="26.926" fill="none"/>
    </clipPath>
    <clipPath id="clip-path-3">
      <rect id="Rectangle_222" data-name="Rectangle 222" width="1.312" height="0.584" fill="none"/>
    </clipPath>
    <clipPath id="clip-path-4">
      <rect id="Rectangle_224" data-name="Rectangle 224" width="13.703" height="10.014" fill="none"/>
    </clipPath>
    <clipPath id="clip-path-5">
      <rect id="Rectangle_225" data-name="Rectangle 225" width="9.102" height="6.913" fill="none"/>
    </clipPath>
    <clipPath id="clip-path-6">
      <rect id="Rectangle_226" data-name="Rectangle 226" width="14.75" height="6.676" fill="none"/>
    </clipPath>
    <clipPath id="clip-path-7">
      <rect id="Rectangle_231" data-name="Rectangle 231" width="8.551" height="108.757" fill="none"/>
    </clipPath>
    <clipPath id="clip-path-8">
      <rect id="Rectangle_232" data-name="Rectangle 232" width="6.485" height="103.588" fill="none"/>
    </clipPath>
    <clipPath id="clip-path-9">
      <rect id="Rectangle_234" data-name="Rectangle 234" width="1.784" height="26.512" fill="none"/>
    </clipPath>
    <clipPath id="clip-path-10">
      <rect id="Rectangle_237" data-name="Rectangle 237" width="17.209" height="8.607" fill="none"/>
    </clipPath>
    <clipPath id="clip-path-11">
      <rect id="Rectangle_238" data-name="Rectangle 238" width="15.07" height="14.38" fill="none"/>
    </clipPath>
    <clipPath id="clip-path-12">
      <rect id="Rectangle_239" data-name="Rectangle 239" width="18.387" height="5.686" fill="none"/>
    </clipPath>
    <clipPath id="clip-path-13">
      <rect id="Rectangle_240" data-name="Rectangle 240" width="6.137" height="32.433" fill="none"/>
    </clipPath>
    <clipPath id="clip-path-14">
      <rect id="Rectangle_260" data-name="Rectangle 260" width="13.42" height="12.167" fill="none"/>
    </clipPath>
    <clipPath id="clip-path-15">
      <rect id="Rectangle_261" data-name="Rectangle 261" width="5.543" height="23.962" fill="none"/>
    </clipPath>
    <clipPath id="clip-path-16">
      <rect id="Rectangle_262" data-name="Rectangle 262" width="30.23" height="13.248" fill="none"/>
    </clipPath>
    <clipPath id="clip-path-17">
      <rect id="Rectangle_264" data-name="Rectangle 264" width="3.802" height="12.635" fill="none"/>
    </clipPath>
    <clipPath id="clip-path-18">
      <rect id="Rectangle_266" data-name="Rectangle 266" width="85.858" height="5.332" fill="none"/>
    </clipPath>
    <clipPath id="clip-path-19">
      <rect id="Rectangle_267" data-name="Rectangle 267" width="69.414" height="33.07" fill="none"/>
    </clipPath>
  </defs>
  <g id="Group_21146" data-name="Group 21146" transform="translate(644.65 -1690.995)">
    <path id="Union_4" data-name="Union 4" d="M279.881,91.382a7.614,7.614,0,0,1-7.223-7.672v-.567a3.533,3.533,0,0,0-3.533-3.533H236.776a4.24,4.24,0,0,1-4.239-4.307,4.2,4.2,0,0,0-4.256-4.172h-6.815a5.888,5.888,0,0,1-5.888-5.889V58.647a3.534,3.534,0,0,0-3.461-3.532,3.584,3.584,0,0,1-3.6-3.533v-2.7c-15.732-.158-51.434-.594-62.74-.248-13.494.413-33.654-1.253-53.067-11.529C69.355,24.748,49.3,34.96,21.542,49.094c-5.365,2.732-10.888,5.544-16.789,8.382a3.245,3.245,0,0,1-4.339-1.54l-.1-.22a3.246,3.246,0,0,1,1.532-4.308C7.676,48.6,13.16,45.81,18.488,43.1,32.937,35.74,45.415,29.386,57.7,26.466c13.789-3.276,25.911-1.785,38.15,4.693,18.042,9.549,36.881,11.12,49.51,10.756,11.086-.32,48.716.244,63.149.463V39.805a3.533,3.533,0,0,1,3.461-3.532,3.585,3.585,0,0,0,3.606-3.533v-6.6a5.888,5.888,0,0,1,5.888-5.888H228.3a4.24,4.24,0,0,0,4.239-4.307,4.2,4.2,0,0,1,4.256-4.172h32.333a3.533,3.533,0,0,0,3.533-3.533V7.677A7.614,7.614,0,0,1,279.881,0a7.5,7.5,0,0,1,7.77,7.492V83.89a7.5,7.5,0,0,1-7.5,7.5Q280.018,91.387,279.881,91.382Z" transform="translate(-643.999 1744.409)" stroke="rgba(0,0,0,0)" stroke-width="1" fill="url(#linear-gradient)"/>
    <path id="Union_3" data-name="Union 3" d="M28.122,83.89V7.5A7.5,7.5,0,0,1,35.893,0a7.614,7.614,0,0,1,7.224,7.672v.567a3.533,3.533,0,0,0,3.533,3.533H78.982c2.318,0,21.213,1.207,21.213,14.367v6.6a3.585,3.585,0,0,0,3.605,3.533,3.533,3.533,0,0,1,3.461,3.532v3.23c2.423.309,5.111.71,8.025,1.229a172.148,172.148,0,0,1,49.63,16.976c13.173,6.972,37.56,11.75,66.5,4.247,21.857-5.666,53.635-20.46,82.142-58.676a3.365,3.365,0,1,1,5.405,4.01C289.29,50.613,256.02,66.064,233.108,72a124.025,124.025,0,0,1-30.9,4.007c-3.258,0-6.477-.139-9.637-.42-11.734-1.043-22.384-3.948-30.8-8.4a165.362,165.362,0,0,0-47.476-16.266c-2.526-.453-4.881-.813-7.031-1.1v1.758a3.584,3.584,0,0,1-3.6,3.533,3.534,3.534,0,0,0-3.461,3.532v6.595C100.2,78.507,81.362,79.61,79,79.61H46.649a3.533,3.533,0,0,0-3.533,3.533v.567a7.614,7.614,0,0,1-7.224,7.672q-.137,0-.273,0A7.5,7.5,0,0,1,28.122,83.89ZM3.4,68.871a3.4,3.4,0,0,1-3.4-3.4v-3.85a3.4,3.4,0,0,1,3.4-3.4h22.55V68.871Zm0-35.7a3.4,3.4,0,0,1-3.4-3.4v-3.85a3.4,3.4,0,0,1,3.4-3.4h22.55V33.171Z" transform="translate(-187.102 1744.409)" stroke="rgba(0,0,0,0)" stroke-width="1" fill="url(#linear-gradient-2)"/>
    <path id="Union_2" data-name="Union 2" d="M284.911,239.727a99.742,99.742,0,0,1-33.033-26.521,121.305,121.305,0,0,1-21.162-39.61,155.916,155.916,0,0,1-7.4-48.566,154.3,154.3,0,0,1,7.57-48.737A123.543,123.543,0,0,1,252.222,36.51,101.3,101.3,0,0,1,285.428,9.816Q304.864,0,328.612,0t43.012,9.644a99.986,99.986,0,0,1,33.033,26.522,121.547,121.547,0,0,1,21.162,39.61,156.049,156.049,0,0,1,7.4,48.565,154.419,154.419,0,0,1-7.57,48.738,123.641,123.641,0,0,1-21.334,39.782,101.338,101.338,0,0,1-33.206,26.694q-19.445,9.816-43.184,9.816T284.911,239.727ZM302.632,44.948a61.433,61.433,0,0,0-19.1,18.255A89.381,89.381,0,0,0,271.32,90.586a128.219,128.219,0,0,0-4.3,33.754,127.612,127.612,0,0,0,4.3,33.927,91.583,91.583,0,0,0,12.387,27.555,61.081,61.081,0,0,0,19.442,18.6,49.059,49.059,0,0,0,25.463,6.716,48.171,48.171,0,0,0,25.291-6.716A60.812,60.812,0,0,0,373,185.995a92.034,92.034,0,0,0,12.216-27.383,126.479,126.479,0,0,0,4.3-33.583,128.455,128.455,0,0,0-4.3-33.754A89.414,89.414,0,0,0,372.828,63.72a63.813,63.813,0,0,0-19.442-18.6,50.738,50.738,0,0,0-50.754-.173ZM576.36,246.271V192.194H454.894l-7.915-30.31L580.833,3.444h36.13V157.406h34.41v34.788h-34.41v54.077Zm-79.142-88.864H576.36V62ZM129.38,246.271V192.194H7.914L0,161.884,133.853,3.444h36.13V157.406h34.41v34.788h-34.41v54.077ZM50.238,157.406H129.38V62Z" transform="translate(-584.295 1866.625)" fill="#195279" stroke="rgba(0,0,0,0)" stroke-width="1"/>
    <g id="Group_21145" data-name="Group 21145" transform="translate(-337.706 1690.995)">
      <path id="Path_53" data-name="Path 53" d="M1225.456,779.5s-1.144-7.725-.352-9.433,20.236-2.618,20.192-1.174,1.149,17.341.726,19.827-19.964-.739-19.964-.739Z" transform="translate(-1109.622 -503.629)" fill="#f5bf99"/>
      <path id="Path_54" data-name="Path 54" d="M1218.38,816.3c1.142,1.422,3.418,5.122,4.462,5.407s1.044,2.75.759,5.692.381,5.784,4.363,7.493,19.162,4.174,22.2-2.183a7.363,7.363,0,0,0,.282-5.261v0c-1.357-5.087-6.212-10.866-6.351-17.976-.116-5.886-.547-8.2-2.148-9.482v0a4.114,4.114,0,0,0-.465-.326v0a19.265,19.265,0,0,0-4.311-1.576c-3.686-1.1-7.57.936-10.339,2.276-.637.311-1.215.581-1.718.77a2.226,2.226,0,0,1-1.6.186c-1.8-.855-2.465-3.416-3.413-2.183,0,0-1.8,7.645-1.709,8.991a12.113,12.113,0,0,1-.134,1.776v0c-.262,2.157-.709,5.354.131,6.4" transform="translate(-1105.078 -523.026)" fill="#25282b"/>
      <g id="Group_20994" data-name="Group 20994" transform="translate(112.814 286.871)" opacity="0.5">
        <g id="Group_20993" data-name="Group 20993" transform="translate(0 0)">
          <g id="Group_20992" data-name="Group 20992" clip-path="url(#clip-path)">
            <path id="Path_58" data-name="Path 58" d="M1218.38,839.4c1.142,1.422,3.418,5.122,4.462,5.407s1.044,2.75.759,5.692.381,5.784,4.363,7.493,19.162,4.174,22.2-2.183a7.363,7.363,0,0,0,.282-5.261c-.956,4.979-3.6,5.642-13.752,5.91s-11.761-6.433-11.581-8.142.2-6.639-.939-7.921c-1.122-1.259-5.776-7.212-5.921-7.395-.262,2.157-.709,5.354.131,6.4" transform="translate(-1217.892 -832.998)"/>
          </g>
        </g>
      </g>
      <path id="Path_59" data-name="Path 59" d="M991.8,771.422s1.144-7.726.352-9.433-20.236-2.618-20.192-1.174-1.149,17.341-.726,19.828S991.2,779.9,991.2,779.9Z" transform="translate(-943.305 -498.332)" fill="#f5bf99"/>
      <path id="Path_60" data-name="Path 60" d="M976.777,808.219c-1.142,1.422-3.418,5.122-4.462,5.407s-1.044,2.75-.759,5.692-.381,5.784-4.363,7.493-19.162,4.174-22.2-2.183a7.362,7.362,0,0,1-.282-5.261v0c1.357-5.087,6.212-10.866,6.351-17.976.116-5.886.547-8.2,2.148-9.482v0a4.1,4.1,0,0,1,.465-.326v0A19.267,19.267,0,0,1,957.99,790c3.686-1.1,7.569.936,10.339,2.276.637.311,1.215.581,1.718.77a2.226,2.226,0,0,0,1.6.186c1.8-.855,2.465-3.416,3.413-2.183,0,0,1.8,7.645,1.709,8.991a12.106,12.106,0,0,0,.134,1.776v0c.262,2.157.709,5.354-.131,6.4" transform="translate(-925.749 -517.73)" fill="#25282b"/>
      <g id="Group_21006" data-name="Group 21006" transform="translate(18.618 284.089)" opacity="0.5">
        <g id="Group_21005" data-name="Group 21005" transform="translate(0 0)">
          <g id="Group_21004" data-name="Group 21004" clip-path="url(#clip-path-2)">
            <path id="Path_64" data-name="Path 64" d="M976.777,831.32c-1.142,1.422-3.418,5.122-4.462,5.407s-1.044,2.75-.759,5.692-.381,5.784-4.363,7.493-19.162,4.174-22.2-2.183a7.362,7.362,0,0,1-.282-5.261c.956,4.979,3.6,5.642,13.752,5.91s11.761-6.433,11.581-8.142-.2-6.639.939-7.921c1.122-1.259,5.776-7.212,5.921-7.395.262,2.157.709,5.354-.131,6.4" transform="translate(-944.366 -824.919)"/>
          </g>
        </g>
      </g>
      <path id="Path_65" data-name="Path 65" d="M1075.389,550.437c-1.015,1.693-22.848.829-24.2.152s-1.53-50.6-.852-62.456a18.666,18.666,0,0,0-.043-2.744c-.036-.428-.088-.848-.154-1.26-1.455-9.146-9.37-14.124-9.617-14.276,0,0,0,0-.007,0H997.85a18.807,18.807,0,0,0-5.307,8.754c-.129.449-.247.918-.358,1.41-.963,4.278-1.271,10.183-1.108,19.3.34,18.962,0,46.728-.678,48.42s-27.616.832-27.953-1.538-.15-60.764.19-82.1,14.559-26.75,14.559-26.75,49.773-15.574,74.153-4.4,26.751,25.733,27.088,36.907-2.031,78.894-3.048,80.589" transform="translate(-937.485 -281.197)" fill="#25282b"/>
      <g id="Group_21009" data-name="Group 21009" transform="translate(74.853 188.067)" opacity="0.4">
        <g id="Group_21008" data-name="Group 21008">
          <g id="Group_21007" data-name="Group 21007" clip-path="url(#clip-path-3)">
            <path id="Path_66" data-name="Path 66" d="M1108.97,546.679h-1.314s.147-.2.383-.585Z" transform="translate(-1107.657 -546.094)" fill="#020202"/>
          </g>
        </g>
      </g>
      <g id="Group_21015" data-name="Group 21015" transform="translate(62.462 156.775)" opacity="0.4">
        <g id="Group_21014" data-name="Group 21014" transform="translate(0 0)">
          <g id="Group_21013" data-name="Group 21013" clip-path="url(#clip-path-4)">
            <path id="Path_68" data-name="Path 68" d="M1085.385,465.246s-6.176-7.647-13.7-10.014a23.292,23.292,0,0,1,13.7,10.014" transform="translate(-1071.682 -455.232)" fill="#020202"/>
          </g>
        </g>
      </g>
      <g id="Group_21018" data-name="Group 21018" transform="translate(85.467 162.056)" opacity="0.4">
        <g id="Group_21017" data-name="Group 21017" transform="translate(0 0)">
          <g id="Group_21016" data-name="Group 21016" clip-path="url(#clip-path-5)">
            <path id="Path_69" data-name="Path 69" d="M1138.476,477.478s4.006-5.335,9.1-6.913a15.507,15.507,0,0,0-9.1,6.913" transform="translate(-1138.477 -470.565)" fill="#020202"/>
          </g>
        </g>
      </g>
      <g id="Group_21021" data-name="Group 21021" transform="translate(82.492 157.2)" opacity="0.4">
        <g id="Group_21020" data-name="Group 21020" transform="translate(0 0)">
          <g id="Group_21019" data-name="Group 21019" clip-path="url(#clip-path-6)">
            <path id="Path_70" data-name="Path 70" d="M1129.841,463.142s6.372-6.069,14.748-6.676c0,0-6.251.3-14.748,6.676" transform="translate(-1129.841 -456.466)" fill="#020202"/>
          </g>
        </g>
      </g>
      <path id="Path_75" data-name="Path 75" d="M1082.475,154.29l.31,13.825,19.114,8.779,9.983-10.529-1.78-16.2Z" transform="translate(-1016.295 -98.448)" fill="#ffc7a0"/>
      <path id="Path_76" data-name="Path 76" d="M1110.914,428.064s-5.992,2.969-9.713,3.536-8.414,2.753-13.633.3,1.379-23.422,1.379-23.422h19.3s5.462,14.211,2.668,19.591" transform="translate(-1018.317 -267.801)" fill="#fff"/>
      <path id="Path_77" data-name="Path 77" d="M1011.071,408.473s-1.04,9.082-1.989,10.359-4.378,4.754-3.657,9.4c0,0,17.532-4.078,20.618,0s8.674,6.892,8.923,5.637,1.379-25.4,1.379-25.4Z" transform="translate(-965.715 -267.801)" fill="#e19a06"/>
      <path id="Path_78" data-name="Path 78" d="M1151.437,408.473s2.274,20.487,2.989,20.389,19.717-5.8,27.95-1.389-1.365-12.061-2.143-19Z" transform="translate(-1061.508 -267.801)" fill="#e19a06"/>
      <path id="Path_79" data-name="Path 79" d="M1091.394,198.894s12.163,7.963,23.753-1.684v21.982l-3.075,50.774h-19.3Z" transform="translate(-1022.143 -129.293)" fill="#fff"/>
      <path id="Path_80" data-name="Path 80" d="M1030.052,242.261h-25.274l.46-8.883-.269-1.515-4.026-35.027s-11.131-31.987-.872-34.183a70.353,70.353,0,0,0,9.143-3.12c9.9-3.524,14.711-3.047,14.711-3.047.306-1.072,2.144-1.532,2.144-1.532s.152,12.561,2.6,16.237,4.749,11.335,5.514,21.6-4.135,49.474-4.135,49.474" transform="translate(-959.422 -101.589)" fill="#e19a06"/>
      <path id="Path_81" data-name="Path 81" d="M1172.51,229.659l1.414,12.6h-28.8s-3.982-36.761-3.216-47.024,2.6-18.386,5.054-22.061,2.145-18.222,2.145-18.222,1.838.46,2.144,1.532a64.474,64.474,0,0,1,18.6,6.663c8.165,4.743,10.855,10.832,10.855,10.832l-8.469,53.27.015.133Z" transform="translate(-1055.199 -101.59)" fill="#e19a06"/>
      <g id="Group_21036" data-name="Group 21036" transform="translate(64.077 55.767)" opacity="0.15">
        <g id="Group_21035" data-name="Group 21035" transform="translate(0 0)">
          <g id="Group_21034" data-name="Group 21034" clip-path="url(#clip-path-7)">
            <path id="Path_82" data-name="Path 82" d="M1079.533,270.685h-.013a.087.087,0,0,1-.073-.1c.013-.088.124-12.152,1.109-24.855.945-12.193,3.228-24.933,3.856-32.442a96.033,96.033,0,0,0-.615-21.495c-.875-6.032-2.3-11.136-3.913-14-3.087-5.491-3.512-15.671-3.516-15.774a.087.087,0,0,1,.084-.091.086.086,0,0,1,.091.084c0,.1.427,10.241,3.494,15.695,1.621,2.884,3.055,8.009,3.933,14.062a96.215,96.215,0,0,1,.617,21.535c-.628,7.508-2.91,20.239-3.855,32.428-.985,12.714-1.1,24.792-1.111,24.88a.087.087,0,0,1-.086.075" transform="translate(-1076.367 -161.928)" fill="#020202"/>
          </g>
        </g>
      </g>
      <g id="Group_21039" data-name="Group 21039" transform="translate(89.675 55.767)" opacity="0.15">
        <g id="Group_21038" data-name="Group 21038" transform="translate(0 0)">
          <g id="Group_21037" data-name="Group 21037" clip-path="url(#clip-path-8)">
            <path id="Path_83" data-name="Path 83" d="M1156.169,265.516a.087.087,0,0,1-.087-.077c-1.223-10.625-5.115-45.17-5.331-56.476-.193-10.136.063-23,2.38-26.742,4.046-6.53,3.88-20.069,3.878-20.2a.087.087,0,1,1,.175,0,69.766,69.766,0,0,1-.406,7.651c-.42,3.873-1.368,9.21-3.5,12.648-2.294,3.7-2.546,16.535-2.354,26.647.215,11.3,4.107,45.84,5.329,56.459a.087.087,0,0,1-.077.1h-.01" transform="translate(-1150.7 -161.928)" fill="#020202"/>
          </g>
        </g>
      </g>
      <g id="Group_21045" data-name="Group 21045" transform="translate(53.009 121.002)" opacity="0.15">
        <g id="Group_21044" data-name="Group 21044" transform="translate(0 0)">
          <g id="Group_21043" data-name="Group 21043" clip-path="url(#clip-path-9)">
            <path id="Path_85" data-name="Path 85" d="M1044.585,351.354s-1.429,15.478,1.426,26.512a124.971,124.971,0,0,1-1.426-26.512" transform="translate(-1044.228 -351.354)" fill="#020202"/>
          </g>
        </g>
      </g>
      <g id="Group_21054" data-name="Group 21054" transform="translate(43.366 150.749)" opacity="0.15">
        <g id="Group_21053" data-name="Group 21053" transform="translate(0 0)">
          <g id="Group_21052" data-name="Group 21052" clip-path="url(#clip-path-10)">
            <path id="Path_88" data-name="Path 88" d="M1016.233,438.015s11.8-1.277,17.207,8.324c0,0-4.976-10.438-17.207-8.324" transform="translate(-1016.232 -437.732)" fill="#020202"/>
          </g>
        </g>
      </g>
      <g id="Group_21057" data-name="Group 21057" transform="translate(103.654 140.672)" opacity="0.15">
        <g id="Group_21056" data-name="Group 21056" transform="translate(0 0)">
          <g id="Group_21055" data-name="Group 21055" clip-path="url(#clip-path-11)">
            <path id="Path_89" data-name="Path 89" d="M1206.358,408.473s-12.936,6.772-15.073,14.38c0,0,4.019-7.684,15.073-14.38" transform="translate(-1191.287 -408.473)" fill="#020202"/>
          </g>
        </g>
      </g>
      <path id="Path_90" data-name="Path 90" d="M1220.275,210.205s3.31,10.176,5.476,20.669,1.5,12.492,3.166,21.324,4.5,16.391-.833,24.276-7.172,12.192-13,12.205-12.92-13.087-12.92-13.087Z" transform="translate(-1094.765 -137.813)" fill="#e19a06"/>
      <g id="Group_21060" data-name="Group 21060" transform="translate(112.711 122.884)" opacity="0.15">
        <g id="Group_21059" data-name="Group 21059" transform="translate(0 0)">
          <g id="Group_21058" data-name="Group 21058" clip-path="url(#clip-path-12)">
            <path id="Path_91" data-name="Path 91" d="M1217.592,358.478s13.222-3.822,18.386,4.028c0,0-4.958-9.4-18.386-4.028" transform="translate(-1217.591 -356.82)" fill="#020202"/>
          </g>
        </g>
      </g>
      <g id="Group_21063" data-name="Group 21063" transform="translate(114.192 91.703)" opacity="0.15">
        <g id="Group_21062" data-name="Group 21062" transform="translate(0 0)">
          <g id="Group_21061" data-name="Group 21061" clip-path="url(#clip-path-13)">
            <path id="Path_92" data-name="Path 92" d="M1228.031,266.277a213.9,213.9,0,0,0-5,32.433h-1.136s1.738-18.9,6.137-32.433" transform="translate(-1221.893 -266.277)" fill="#020202"/>
          </g>
        </g>
      </g>
      <path id="Path_93" data-name="Path 93" d="M1028.854,34.956c.634-.246,4.034-4.054,5.219-5.04s.988-2.382-.166-2.355-2.479,1.185-5.156,3.734-3.258,3.044-3.882,2.737.147-1.468.147-1.468c2.421-3.436,3-1.618,3.444-3.157s-.512-1.57-2.294-1.194-4.113,3.084-6.242,4.943-7.086,6.485-7.9,7.8a17.856,17.856,0,0,1-3.83,3.093c1.426,2.563,3.534,7.024,4.563,9.065.106-.065.21-.124.312-.179,1.748-.942,3.262-1.924,4.22-2.441,1.5-.808,2.17-.554,5.45-.887s4.717-1.69,7.03-2.354,2.722-.595,4.02-1.44,1.8-.831,2.759-1.454a1.193,1.193,0,0,0,.431-.451l0-.006a.572.572,0,0,0,.041-.1c.205-.592-.326-1.285-1.58-1.57a6.529,6.529,0,0,0-3.151.523,20.174,20.174,0,0,0-1.956.832c.065-.036.131-.076.2-.118,0,0,0,0,.007-.005.1-.067.205-.14.309-.223h0c.949-.734,2.067-2.033,3.586-3.15,1.816-1.332,6.266-5.165,7.313-5.992s0-2.06-.61-2.217-1.47.507-2.805,1.505-6.371,5.121-7.17,5.178-.647-.607-.16-.843,2.34-1.721,3.358-2.247,3.906-4.445,5-5.225a1.545,1.545,0,0,0,.12-2.571c-.73-.4-1.313-.108-2.392.974a84.441,84.441,0,0,1-6.619,5.842c-2.385,1.826-2.262.713-1.625.467" transform="translate(-967.597 -18.029)" fill="#ffc7a0"/>
      <path id="Path_113" data-name="Path 113" d="M919.691,107.462a.316.316,0,0,0,.375.361c.758-.147,2.236-.429,4-.738,2.585-.449,4.058-1.034,6.883-1.584l2.907.692c2.828-.549,2.012,29.95-2.034,33.492,0,0-.106-.118-.3-.312a14.441,14.441,0,0,0-3.951-2.784c-.253-.115-.513-.223-.78-.316l-.017-.007a8.137,8.137,0,0,0-1.638-.4c-3.708-.505-14.274-1.8-21.862-7.811s-13.545-11.522-12.927-17.087,9.835-14.892,13.376-18.715,18.763-16.835,22.088-19.277c3.935-2.89,7.255-5.591,7.817-5.14s8.093,7.868,8.037,10.9c0,0-17.586,16.843-21.958,28.669l0,0-.015.059" transform="translate(-890.305 -44.436)" fill="#e19a06"/>
      <g id="Group_21123" data-name="Group 21123" transform="translate(16.341 63.027)" opacity="0.15">
        <g id="Group_21122" data-name="Group 21122" transform="translate(0 0)">
          <g id="Group_21121" data-name="Group 21121" clip-path="url(#clip-path-14)">
            <path id="Path_114" data-name="Path 114" d="M951.176,183.368s-3.858,16.278-13.42,10.61c1.072.611,9.1,4.572,13.045-10.97a.316.316,0,0,0,.375.361" transform="translate(-937.756 -183.008)"/>
          </g>
        </g>
      </g>
      <g id="Group_21126" data-name="Group 21126" transform="translate(37.269 71.285)" opacity="0.15">
        <g id="Group_21125" data-name="Group 21125" transform="translate(0 0)">
          <g id="Group_21124" data-name="Group 21124" clip-path="url(#clip-path-15)">
            <path id="Path_115" data-name="Path 115" d="M1002.777,230.954s-.105-.118-.3-.311a14.42,14.42,0,0,0-3.951-2.784c.785.3,1.41.51,1.908.652a1.644,1.644,0,0,0,2.06-1.273l.029-.157a64.249,64.249,0,0,0,.91-20.089c1.746,7.691-.655,23.961-.655,23.961" transform="translate(-998.524 -206.992)"/>
          </g>
        </g>
      </g>
      <path id="Path_116" data-name="Path 116" d="M1058.577,88.519s-3.275-3.328-3.307.464.6,1.463.978,6.7c.311,4.363,3.654,2.987,3.654,2.987Z" transform="translate(-998.458 -57.148)" fill="#ffc7a0"/>
      <path id="Path_117" data-name="Path 117" d="M1175.7,91.189s3.275-3.328,3.307.464-.6,1.463-.978,6.7c-.311,4.362-3.654,2.986-3.654,2.986Z" transform="translate(-1076.548 -58.898)" fill="#ffc7a0"/>
      <path id="Path_118" data-name="Path 118" d="M1104.933,68.822c0,.421-.008.847-.011,1.278q-.008.971-.009,1.97a30.6,30.6,0,0,1-.417,5.025c-.02.121-.04.243-.063.363a29.1,29.1,0,0,1-2.548,7.782c-3.952,8-10.9,12.554-15.418,12.554-4.466,0-10.885-4.029-14.731-11.768v0a31.31,31.31,0,0,1-2.895-9.461h0c-.021-.147-.041-.294-.06-.441a36.875,36.875,0,0,1-.319-4.866q0-1.216-.017-2.381-.009-.721-.02-1.422c-.181-11.979-.311-19.419,18.044-19.419,18.517,0,18.569,8.369,18.464,20.789" transform="translate(-1007.061 -31.49)" fill="#ffc7a0"/>
      <path id="Path_119" data-name="Path 119" d="M1062.006,32.373s-.656,8.4-.613,9.149-1.949-9.149-2.262-11.857-3.1-11.84-.467-16.1,2.463-5.108,5.449-7.042,8.635-6.965,13.046-6.5,12.15,2.554,14.858,4.488,6.874,3.4,9.086,8.745-2.621,21.86-3.029,28.3c0,0-.125.937-.872-7.76a1.471,1.471,0,0,0-.484-.971c-.632-.565-1.819-2.013-2.574-5.32a1.385,1.385,0,0,0-1.179-1.07c-2.251-.279-7.713-.867-9.538-.258-2.255.751-10.727,3.482-17.862-.338a.738.738,0,0,0-1.008.323,9.874,9.874,0,0,0-1.143,4.58.729.729,0,0,1-.459.7c-.406.163-.913.458-.949.923" transform="translate(-999.949 0.005)" fill="#232628"/>
      <g id="Group_21129" data-name="Group 21129" transform="translate(64.677 53.749)" opacity="0.1">
        <g id="Group_21128" data-name="Group 21128" transform="translate(0 0)">
          <g id="Group_21127" data-name="Group 21127" clip-path="url(#clip-path-16)">
            <path id="Path_120" data-name="Path 120" d="M1108.341,156.066s-4.682,12.9-14.849,13.241c-10.088.339-15.3-12.259-15.38-12.453,3.845,7.739,10.264,11.768,14.73,11.768,4.522,0,11.466-4.558,15.418-12.554Z" transform="translate(-1078.111 -156.067)" fill="#272727"/>
          </g>
        </g>
      </g>
      <path id="Path_132" data-name="Path 132" d="M1141.926,103.988c-.041-.036-.082-.069-.123-.1a7.253,7.253,0,0,0-7.191-1.39.96.96,0,0,0-.6.487,3.785,3.785,0,0,0-.241,2.189,8.5,8.5,0,0,1,8.506-.2.665.665,0,0,0-.071-.591,1.089,1.089,0,0,0-.284-.389" transform="translate(-1049.899 -66.917)" fill="#232628"/>
      <path id="Path_133" data-name="Path 133" d="M1084.3,104.9c.037-.04.075-.076.113-.111a7.253,7.253,0,0,1,7.04-2.022.961.961,0,0,1,.638.432,3.787,3.787,0,0,1,.433,2.159,8.5,8.5,0,0,0-8.49.55.666.666,0,0,1,.018-.6,1.084,1.084,0,0,1,.248-.413" transform="translate(-1017.278 -67.215)" fill="#232628"/>
      <path id="Path_134" data-name="Path 134" d="M1138.6,116.516a2.062,2.062,0,1,0,2.04-2.436,2.267,2.267,0,0,0-2.04,2.436" transform="translate(-1053.09 -74.791)" fill="#232628"/>
      <path id="Path_135" data-name="Path 135" d="M1089.8,118.006a2.062,2.062,0,1,0,2.04-2.436,2.267,2.267,0,0,0-2.04,2.436" transform="translate(-1021.098 -75.768)" fill="#232628"/>
      <g id="Group_21135" data-name="Group 21135" transform="translate(77.908 41.207)" opacity="0.1">
        <g id="Group_21134" data-name="Group 21134" transform="translate(0 0)">
          <g id="Group_21133" data-name="Group 21133" clip-path="url(#clip-path-17)">
            <path id="Path_136" data-name="Path 136" d="M1117.742,120.619a1.033,1.033,0,0,1,.028-.486c.118-.38.383-.919.77.124.446,1.2.354,7.03-.2,9.193a1.03,1.03,0,0,0,.582,1.209l.822.354a.982.982,0,0,1,.559.585c.1.3.015.646-.832.685-1.54.072-3.388-1.433-2.84-2.871a17.775,17.775,0,0,0,1.112-8.793" transform="translate(-1116.531 -119.65)" fill="#272727"/>
          </g>
        </g>
      </g>
      <path id="Path_137" data-name="Path 137" d="M1117.965,166.99c-.189.159-.744-.108-1.579-.445a11.278,11.278,0,0,0-6.67-.744c-.886.145-1.484.283-1.635.086-.071-.094-.015-.259.171-.471a3.411,3.411,0,0,1,.964-.7,6.4,6.4,0,0,1,1.739-.59,7.8,7.8,0,0,1,4.575.51,6.457,6.457,0,0,1,1.574.959,3.459,3.459,0,0,1,.794.9c.138.248.157.422.068.5" transform="translate(-1033.064 -107.514)" fill="#232628"/>
      <g id="Group_21141" data-name="Group 21141" transform="translate(38.869 164.524)" opacity="0.4">
        <g id="Group_21140" data-name="Group 21140" transform="translate(0 0)">
          <g id="Group_21139" data-name="Group 21139" clip-path="url(#clip-path-18)">
            <path id="Path_139" data-name="Path 139" d="M1088.987,479.306s1.361,4.088-11.4,3.736c-5.343-.147-18.574-1.529-32.153-1.893-18.861-.505-38.394,0-38.394,0a6.424,6.424,0,0,1-3.864-3.417Z" transform="translate(-1003.172 -477.732)" fill="#020202"/>
          </g>
        </g>
      </g>
      <path id="Path_140" data-name="Path 140" d="M1091.172,341.166l-2.1,44.669a2.857,2.857,0,0,1-.144.835,2.463,2.463,0,0,1-.137.346,2.7,2.7,0,0,1-1.184,1.224,2.5,2.5,0,0,1-1.194.272l-58.385-1.227-.4-.01-1.822-.041-20.061-.331a2.679,2.679,0,0,1-2.543-2.8l-.117-44.989a2.664,2.664,0,0,1,2.659-2.677l82.887,1.93a2.683,2.683,0,0,1,2.544,2.8" transform="translate(-964.244 -220.572)" fill="#d8d7d6"/>
      <path id="Path_141" data-name="Path 141" d="M1117.755,405.4l-4.116-.1a5.276,5.276,0,0,1-5.006-5.509l.091-4.333a5.247,5.247,0,0,1,5.233-5.271l4.116.1a5.276,5.276,0,0,1,5.006,5.509l-.091,4.333a5.247,5.247,0,0,1-5.233,5.271" transform="translate(-1033.444 -255.814)" fill="#fff"/>
      <g id="Group_21144" data-name="Group 21144" transform="translate(56.098 133.494)" opacity="0.05">
        <g id="Group_21143" data-name="Group 21143" transform="translate(0 0)">
          <g id="Group_21142" data-name="Group 21142" clip-path="url(#clip-path-19)">
            <path id="Path_142" data-name="Path 142" d="M1053.2,419.889s63.644-1.6,69.412-32.26l-1.72,29.209a4,4,0,0,1-3.948,3.86Z" transform="translate(-1053.201 -387.629)"/>
          </g>
        </g>
      </g>
    </g>
  </g>
</svg>
