<svg width="35" height="35" viewBox="0 0 35 35" fill="none" xmlns="http://www.w3.org/2000/svg">
<path d="M17.8327 0.207031C8.49159 0.207031 0.918945 7.77955 0.918945 17.1207C0.918945 26.4619 8.49159 34.0344 17.8327 34.0344C27.1737 34.0344 34.7464 26.4619 34.7464 17.1207C34.7464 7.77955 27.1737 0.207031 17.8327 0.207031ZM23.6785 18.0173L15.2216 23.3028C15.0615 23.4028 14.8776 23.458 14.689 23.463C14.5003 23.4679 14.3138 23.4222 14.1488 23.3307C13.9837 23.2393 13.8462 23.1053 13.7504 22.9427C13.6547 22.7802 13.6042 22.5949 13.6042 22.4063V11.8352C13.6042 11.4507 13.8127 11.0971 14.1488 10.9108C14.3137 10.8189 14.5003 10.7731 14.689 10.778C14.8777 10.7829 15.0617 10.8384 15.2216 10.9386L23.6785 16.2242C23.9874 16.4178 24.1753 16.7564 24.1753 17.1207C24.1753 17.4851 23.9874 17.8238 23.6785 18.0173Z" fill="#6D6F71"/>
</svg>
