<svg width="80" height="80" viewBox="0 0 80 80" fill="none" xmlns="http://www.w3.org/2000/svg">
<circle cx="40" cy="40" r="40" fill="#E9F6FF"/>
<path d="M58.06 24.4253C59.2295 23.5747 60.8242 24.3189 60.8242 25.701V54.1927C60.8242 55.6811 59.1232 56.4252 58.06 55.5747L54.0202 50.7907L48.1729 55.5747C47.854 55.7874 47.5351 56 47.1098 56C46.7909 56 46.4719 55.7874 46.153 55.5747L40.4121 50.7907L34.5649 55.5747C34.2459 55.7874 33.927 56 33.5017 56C33.1828 56 32.8639 55.7874 32.5449 55.5747L26.804 50.7907L22.6578 55.5747C21.5947 56.4252 20 55.6811 20 54.1927V25.701C20 24.3189 21.5947 23.5747 22.6578 24.4253L26.804 29.103L32.5449 24.4253C32.8639 24.2126 33.1828 24 33.6081 24C33.927 24 34.2459 24.2126 34.5649 24.4253L40.4121 29.103L46.153 24.4253C46.4719 24.2126 46.7909 24 47.2161 24C47.5351 24 47.854 24.2126 48.1729 24.4253L54.0202 29.103L58.06 24.4253ZM54.0202 45.2626V43.5616C54.0202 43.1363 53.5949 42.7111 53.1697 42.7111H27.6545C27.123 42.7111 26.804 43.1363 26.804 43.5616V45.2626C26.804 45.7942 27.123 46.1131 27.6545 46.1131H53.1697C53.5949 46.1131 54.0202 45.7942 54.0202 45.2626ZM54.0202 37.6081V35.9071C54.0202 35.4818 53.5949 35.0565 53.1697 35.0565H27.6545C27.123 35.0565 26.804 35.4818 26.804 35.9071V37.6081C26.804 38.1396 27.123 38.4586 27.6545 38.4586H53.1697C53.5949 38.4586 54.0202 38.1396 54.0202 37.6081Z" fill="#195279"/>
</svg>
