<svg width="18" height="18" viewBox="0 0 18 18" fill="none" xmlns="http://www.w3.org/2000/svg">
<path d="M10.0475 0.771823C9.71191 -0.257276 8.28807 -0.257273 7.95252 0.771825L6.49132 5.25326C6.34103 5.71418 5.9191 6.02508 5.44385 6.02508H1.10631C0.0626016 6.02508 -0.398434 7.36873 0.416572 8.03528L4.25831 11.1773C4.61953 11.4727 4.76232 11.9669 4.61604 12.4156L3.28149 16.5086C2.93355 17.5757 4.15954 18.4497 5.01871 17.7469L8.31024 15.055C8.71349 14.7252 9.28649 14.7252 9.68974 15.055L12.9813 17.7469C13.8404 18.4497 15.0664 17.5757 14.7185 16.5086L13.3839 12.4156C13.2376 11.9669 13.3804 11.4727 13.7417 11.1773L17.5834 8.03528C18.3985 7.36873 17.9374 6.02508 16.8936 6.02508H12.5562C12.0808 6.02508 11.659 5.71418 11.5087 5.25326L10.0475 0.771823Z" fill="#D9D9D9"/>
</svg>
