<svg width="37" height="27" viewBox="0 0 37 27" fill="none" xmlns="http://www.w3.org/2000/svg">
<path d="M12 7H26V20H12V7Z" fill="white"/>
<path d="M35.5578 2.31776C34.2223 0.671516 31.7564 0 27.0471 0H9.95252C5.13548 0 2.62784 0.714832 1.29727 2.46751C0 4.17637 0 6.69425 0 10.1791V16.8211C0 23.5722 1.5392 27 9.95252 27H27.0472C31.1311 27 33.394 26.4074 34.8581 24.9546C36.3594 23.4648 37 21.0323 37 16.8211V10.1791C37 6.50403 36.8996 3.9713 35.5578 2.31776ZM23.7541 14.4171L15.9915 18.6237C15.8096 18.7224 15.6062 18.7708 15.401 18.7642C15.1958 18.7575 14.9957 18.6961 14.8201 18.5858C14.6445 18.4755 14.4993 18.3201 14.3986 18.1346C14.2979 17.9491 14.245 17.7398 14.2451 17.5269V9.14047C14.2451 8.92791 14.2979 8.71893 14.3985 8.53368C14.499 8.34843 14.6438 8.19314 14.819 8.08279C14.9942 7.97244 15.1939 7.91074 15.3988 7.90363C15.6037 7.89653 15.8069 7.94426 15.9888 8.04223L23.7514 12.2218C23.9451 12.3261 24.1076 12.4835 24.221 12.6769C24.3345 12.8703 24.3946 13.0922 24.3949 13.3186C24.3952 13.5449 24.3356 13.767 24.2226 13.9607C24.1096 14.1544 23.9476 14.3122 23.7541 14.4171Z" fill="#DE0000"/>
</svg>
