<svg width="16" height="16" viewBox="0 0 16 16" fill="none" xmlns="http://www.w3.org/2000/svg">
<path d="M14.6949 16C14.368 15.9923 14.0471 15.9114 13.7557 15.7632C13.4643 15.615 13.2099 15.4033 13.0111 15.1437C12.5232 15.2943 12.0156 15.3714 11.5049 15.3722C10.9168 15.3998 10.3294 15.3053 9.77952 15.0947C9.2297 14.8842 8.7294 14.5621 8.31012 14.1487C7.89084 13.7354 7.56165 13.2397 7.34326 12.693C7.12487 12.1462 7.02202 11.5601 7.04116 10.9717C7.04116 10.8193 7.04802 10.6753 7.06174 10.5283C6.66455 10.5956 6.26237 10.6293 5.85951 10.6288C5.28707 10.6296 4.71637 10.5657 4.15826 10.4384C3.56767 10.9782 2.79625 11.2772 1.99609 11.2764H0.221703L1.4765 9.9965C1.64659 9.82282 1.77003 9.60897 1.83533 9.37481C1.26739 8.90327 0.808989 8.31366 0.492033 7.64699C0.175077 6.98031 0.00717254 6.25259 0 5.51444C0.0660782 4.01324 0.715377 2.59708 1.80972 1.56733C2.90407 0.537586 4.35707 -0.0244539 5.85951 0.000816696C9.64141 0.000816696 11.6817 2.73515 11.6817 5.30797C11.6808 5.73893 11.6249 6.16801 11.5156 6.58486C12.1112 6.59133 12.6996 6.7151 13.2473 6.94909C13.795 7.18309 14.2913 7.52273 14.7077 7.94859C15.124 8.37446 15.4524 8.87821 15.674 9.43104C15.8956 9.98388 16.0061 10.575 15.9992 11.1705C16.0061 11.7907 15.8697 12.4041 15.6005 12.9629C15.3313 13.5216 14.9366 14.0106 14.4473 14.3917C14.4814 14.7843 14.6324 15.1577 14.8808 15.4636L15.3295 15.997L14.6949 16ZM12.4184 12.1305L12.7757 13.1681H13.5681L11.9148 8.71047H11.2337L9.58351 13.1681H10.3728L10.7271 12.1305H12.4184ZM0.832719 5.51444C0.835142 6.16159 0.989525 6.79913 1.28343 7.37569C1.57734 7.95226 2.00255 8.45173 2.52482 8.83389L2.74043 8.97864L2.70996 9.23996C2.66199 9.67009 2.49438 10.0781 2.22617 10.4178C2.8037 10.3592 3.34057 10.0938 3.73771 9.67042L3.90685 9.4929L4.1415 9.55614C4.7024 9.70295 5.27972 9.77771 5.85951 9.7786C6.32094 9.7801 6.78103 9.72898 7.23087 9.62623C7.44658 8.85547 7.88191 8.16413 8.48378 7.63653C9.08565 7.10893 9.82804 6.76788 10.6204 6.65495C10.7694 6.22087 10.8466 5.76539 10.849 5.30645C10.849 3.1458 9.09668 0.849535 5.85951 0.849535C4.57906 0.819098 3.33729 1.28956 2.39845 2.16081C1.45962 3.03205 0.897857 4.23529 0.832719 5.51444ZM10.9389 11.505L11.572 9.65594L12.2051 11.505H10.9389ZM6.04236 7.51053C5.91309 7.53765 5.78131 7.55093 5.64924 7.55015C5.31356 7.55714 4.98342 7.46389 4.70101 7.28231C4.4186 7.10073 4.19675 6.83907 4.06379 6.53077C3.90698 6.17506 3.82901 5.78962 3.83523 5.40092V5.14951C3.82806 4.75384 3.90601 4.36125 4.06379 3.99833C4.19764 3.68724 4.4199 3.42232 4.703 3.23646C4.98399 3.05876 5.31072 2.96689 5.64314 2.97209C5.97925 2.96555 6.31004 3.05658 6.59547 3.23418C6.87762 3.41704 7.09946 3.67917 7.23316 3.98766C7.39001 4.34792 7.46794 4.73758 7.46171 5.13046V5.37883C7.47044 5.75425 7.4036 6.1276 7.26515 6.47668C7.14894 6.76588 6.95904 7.01961 6.71432 7.21264L7.464 7.80994L6.97183 8.26325L6.04236 7.51053ZM4.87594 4.00671C4.67151 4.3396 4.5727 4.7266 4.59253 5.11675V5.3773C4.57008 5.77316 4.66666 6.16667 4.86985 6.50715C4.95328 6.63659 5.06891 6.74214 5.2054 6.81345C5.34189 6.88477 5.49457 6.91941 5.64847 6.91399C5.80095 6.92097 5.95265 6.88862 6.08901 6.82004C6.22537 6.75146 6.3418 6.64896 6.4271 6.52239C6.62942 6.17701 6.72387 5.77904 6.69832 5.37959V5.14417C6.72513 4.74402 6.62889 4.34525 6.42253 4.00137C6.33606 3.87582 6.2191 3.7743 6.08264 3.70633C5.94618 3.63837 5.79468 3.60619 5.64238 3.61282C5.49167 3.60783 5.34217 3.64139 5.20805 3.71032C5.07393 3.77924 4.95962 3.88126 4.87594 4.00671Z" fill="#195279"/>
</svg>
