<svg width="40" height="40" viewBox="0 0 40 40" fill="none" xmlns="http://www.w3.org/2000/svg">
<circle cx="20" cy="20" r="20" fill="white"/>
<path d="M31.2999 10.6417L25.2734 4.94037C24.6324 4.33394 23.7934 4 22.9111 4H11.4375C9.54206 4 8 5.54206 8 7.4375V32.5625C8 34.4579 9.54206 36 11.4375 36H28.9375C30.8329 36 32.375 34.4579 32.375 32.5625V13.1389C32.375 12.1983 31.9831 11.2881 31.2999 10.6417ZM29.4788 11.5H24.8125C24.6402 11.5 24.5 11.3598 24.5 11.1875V6.78975L29.4788 11.5ZM28.9375 34.125H11.4375C10.5759 34.125 9.875 33.4241 9.875 32.5625V7.4375C9.875 6.57594 10.5759 5.875 11.4375 5.875H22.625V11.1875C22.625 12.3937 23.6063 13.375 24.8125 13.375H30.5V32.5625C30.5 33.4241 29.7991 34.125 28.9375 34.125Z" fill="#195279"/>
<path d="M26.875 16.5H13.125C12.6073 16.5 12.1875 16.9198 12.1875 17.4375C12.1875 17.9552 12.6073 18.375 13.125 18.375H26.875C27.3927 18.375 27.8125 17.9552 27.8125 17.4375C27.8125 16.9198 27.3927 16.5 26.875 16.5ZM26.875 21.5H13.125C12.6073 21.5 12.1875 21.9198 12.1875 22.4375C12.1875 22.9552 12.6073 23.375 13.125 23.375H26.875C27.3927 23.375 27.8125 22.9552 27.8125 22.4375C27.8125 21.9198 27.3927 21.5 26.875 21.5ZM17.67 26.5H13.125C12.6073 26.5 12.1875 26.9198 12.1875 27.4375C12.1875 27.9552 12.6073 28.375 13.125 28.375H17.67C18.1877 28.375 18.6075 27.9552 18.6075 27.4375C18.6075 26.9198 18.1877 26.5 17.67 26.5Z" fill="#195279"/>
</svg>