<svg width="40" height="40" viewBox="0 0 40 40" fill="none" xmlns="http://www.w3.org/2000/svg">
<circle cx="20" cy="20" r="19.5" stroke="#E6E7E7"/>
<path d="M27.3222 13.5803C25.2153 11.4732 21.7869 11.4732 19.6796 13.5803L13.1286 20.1312C11.6237 21.6363 11.6238 24.0852 13.1288 25.5902C13.8814 26.3428 14.8696 26.719 15.8582 26.7189C16.8466 26.7188 17.8354 26.3427 18.5878 25.5902L24.5927 19.5851C25.0302 19.1477 25.2711 18.5661 25.2712 17.9475C25.2712 17.3288 25.0303 16.7473 24.5928 16.3097C23.6897 15.4067 22.2203 15.4067 21.3173 16.3099L17.3904 20.2367C17.0889 20.5382 17.0889 21.027 17.3903 21.3285C17.6918 21.6301 18.1806 21.63 18.4821 21.3285L22.4091 17.4016C22.7101 17.1006 23.1999 17.1005 23.5009 17.4016C23.5728 17.4731 23.6298 17.5582 23.6687 17.6519C23.7075 17.7456 23.7273 17.846 23.7271 17.9475C23.7271 18.1537 23.6468 18.3475 23.5009 18.4933L17.496 24.4984C16.5929 25.4013 15.1236 25.4015 14.2206 24.4984C13.3176 23.5954 13.3176 22.126 14.2205 21.2229L20.7714 14.6721C22.2766 13.167 24.7255 13.167 26.2304 14.6721C26.9595 15.4011 27.3611 16.3705 27.3611 17.4015C27.3611 18.4326 26.9595 19.4019 26.2304 20.131L19.6795 26.6821C19.3781 26.9836 19.3781 27.4724 19.6796 27.7739C19.7512 27.8457 19.8363 27.9026 19.93 27.9414C20.0237 27.9802 20.1241 28.0001 20.2255 28C20.3269 28.0001 20.4273 27.9802 20.521 27.9414C20.6147 27.9026 20.6998 27.8457 20.7714 27.7739L27.3222 21.2229C28.343 20.2022 28.9051 18.8451 28.9051 17.4015C28.9051 15.958 28.343 14.6009 27.3222 13.5803Z" fill="#55575A"/>
</svg>
