<svg width="84" height="84" viewBox="0 0 84 84" fill="none" xmlns="http://www.w3.org/2000/svg">
<circle cx="42" cy="42" r="42" fill="white" fill-opacity="0.75"/>
<path d="M55.545 30.3189C56.4221 29.6811 57.6181 30.2392 57.6181 31.2758V52.6445C57.6181 53.7608 56.3424 54.3189 55.545 53.6811L52.5151 50.093L48.1297 53.6811C47.8905 53.8405 47.6513 54 47.3324 54C47.0932 54 46.8539 53.8405 46.6147 53.6811L42.3091 50.093L37.9237 53.6811C37.6845 53.8405 37.4452 54 37.1263 54C36.8871 54 36.6479 53.8405 36.4087 53.6811L32.103 50.093L28.9934 53.6811C28.196 54.3189 27 53.7608 27 52.6445V31.2758C27 30.2392 28.196 29.6811 28.9934 30.3189L32.103 33.8273L36.4087 30.3189C36.6479 30.1595 36.8871 30 37.206 30C37.4452 30 37.6845 30.1595 37.9237 30.3189L42.3091 33.8273L46.6147 30.3189C46.8539 30.1595 47.0932 30 47.4121 30C47.6513 30 47.8905 30.1595 48.1297 30.3189L52.5151 33.8273L55.545 30.3189ZM52.5151 45.9469V44.6712C52.5151 44.3522 52.1962 44.0333 51.8772 44.0333H32.7409C32.3422 44.0333 32.103 44.3522 32.103 44.6712V45.9469C32.103 46.3456 32.3422 46.5848 32.7409 46.5848H51.8772C52.1962 46.5848 52.5151 46.3456 52.5151 45.9469ZM52.5151 40.206V38.9303C52.5151 38.6113 52.1962 38.2924 51.8772 38.2924H32.7409C32.3422 38.2924 32.103 38.6113 32.103 38.9303V40.206C32.103 40.6047 32.3422 40.8439 32.7409 40.8439H51.8772C52.1962 40.8439 52.5151 40.6047 52.5151 40.206Z" fill="#195279"/>
</svg>
