<svg width="84" height="84" viewBox="0 0 84 84" fill="none" xmlns="http://www.w3.org/2000/svg">
<circle cx="42" cy="42" r="42" fill="white" fill-opacity="0.75"/>
<path d="M29 30C27.3438 30 26 31.3438 26 33C26 33.9437 26.4438 34.8312 27.2 35.4L40.8 45.6C41.5125 46.1313 42.4875 46.1313 43.2 45.6L56.8 35.4C57.5562 34.8312 58 33.9437 58 33C58 31.3438 56.6562 30 55 30H29ZM26 37V50C26 52.2062 27.7938 54 30 54H54C56.2062 54 58 52.2062 58 50V37L44.4 47.2C42.975 48.2688 41.025 48.2688 39.6 47.2L26 37Z" fill="#195279"/>
</svg>
