<svg width="13" height="13" viewBox="0 0 13 13" fill="none" xmlns="http://www.w3.org/2000/svg">
<path d="M10.3028 7.70263V10.2298C10.302 10.9669 10.0088 11.6735 9.48764 12.1947C8.96644 12.7159 8.25978 13.0091 7.5227 13.0099H3.48003C2.74295 13.0091 2.03629 12.7159 1.5151 12.1947C0.993901 11.6735 0.700745 10.9669 0.699951 10.2298L0.699951 6.18713C0.700745 5.45005 0.993901 4.74339 1.5151 4.22219C2.03629 3.701 2.74295 3.40784 3.48003 3.40705H6.0072C6.2083 3.40705 6.40117 3.48694 6.54337 3.62914C6.68556 3.77134 6.76545 3.9642 6.76545 4.1653C6.76545 4.3664 6.68556 4.55926 6.54337 4.70146C6.40117 4.84366 6.2083 4.92355 6.0072 4.92355H3.48003C3.14507 4.92408 2.82398 5.05737 2.58713 5.29423C2.35028 5.53108 2.21698 5.85217 2.21645 6.18713V10.2298C2.21698 10.5648 2.35028 10.8859 2.58713 11.1227C2.82398 11.3596 3.14507 11.4929 3.48003 11.4934H7.5227C7.85766 11.4929 8.17875 11.3596 8.41561 11.1227C8.65246 10.8859 8.78576 10.5648 8.78628 10.2298V7.70263C8.78628 7.50153 8.86617 7.30867 9.00837 7.16647C9.15057 7.02427 9.34343 6.94438 9.54453 6.94438C9.74564 6.94438 9.9385 7.02427 10.0807 7.16647C10.2229 7.30867 10.3028 7.50153 10.3028 7.70263ZM11.0605 0.879883H8.53337C8.33227 0.879883 8.1394 0.95977 7.9972 1.10197C7.85501 1.24417 7.77512 1.43703 7.77512 1.63813C7.77512 1.83923 7.85501 2.0321 7.9972 2.1743C8.1394 2.3165 8.33227 2.39638 8.53337 2.39638H10.2418L4.96554 7.67164C4.89511 7.74201 4.83923 7.82556 4.80109 7.91752C4.76295 8.00948 4.74329 8.10806 4.74325 8.20761C4.7432 8.30717 4.76276 8.40576 4.80082 8.49776C4.83888 8.58976 4.89468 8.67336 4.96504 8.74379C5.10715 8.88603 5.29995 8.96599 5.50101 8.96609C5.60057 8.96614 5.69916 8.94657 5.79116 8.90851C5.88316 8.87046 5.96676 8.81466 6.03719 8.74429L11.3135 3.46803V5.17847C11.3135 5.37957 11.3933 5.57243 11.5355 5.71463C11.6777 5.85683 11.8706 5.93672 12.0717 5.93672C12.2728 5.93672 12.4657 5.85683 12.6079 5.71463C12.7501 5.57243 12.83 5.37957 12.83 5.17847V2.6493C12.8297 2.1801 12.6432 1.7302 12.3114 1.39843C11.9796 1.06665 11.5297 0.880148 11.0605 0.879883Z" fill="#FFDF30"/>
</svg>
