<svg width="18" height="18" viewBox="0 0 18 18" fill="none" xmlns="http://www.w3.org/2000/svg">
<path d="M9 0C8.56015 -3.10786e-06 8.1203 0.257272 7.95252 0.771825L6.49132 5.25326C6.34103 5.71418 5.9191 6.02508 5.44385 6.02508H1.10631C0.0626016 6.02508 -0.398434 7.36873 0.416572 8.03528L4.25831 11.1773C4.61953 11.4727 4.76232 11.9669 4.61604 12.4156L3.28149 16.5086C2.93355 17.5757 4.15954 18.4497 5.01871 17.7469L8.31024 15.055C8.51187 14.8901 8.75593 14.8077 9 14.8077V0Z" fill="#FDCC0D"/>
<path d="M9 0C9.43985 -3.10786e-06 9.8797 0.257272 10.0475 0.771825L11.5087 5.25326C11.659 5.71418 12.0809 6.02508 12.5562 6.02508H16.8937C17.9374 6.02508 18.3984 7.36873 17.5834 8.03528L13.7417 11.1773C13.3805 11.4727 13.2377 11.9669 13.384 12.4156L14.7185 16.5086C15.0664 17.5757 13.8405 18.4497 12.9813 17.7469L9.68976 15.055C9.48813 14.8901 9.24407 14.8077 9 14.8077V0Z" fill="#D9D9D9"/>
</svg>
