<svg width="16" height="16" viewBox="0 0 16 16" fill="none" xmlns="http://www.w3.org/2000/svg">
<path d="M15.9342 13.7827C15.8531 12.9738 15.6645 12.1795 15.3734 11.4205C15.1087 10.7034 14.6839 10.0561 14.1313 9.5279C13.5787 8.99973 12.9129 8.60461 12.1845 8.37262C11.8529 8.27365 11.5106 8.21482 11.165 8.19736C10.931 8.17984 10.6956 8.16612 10.4617 8.15393C9.69207 8.11278 8.92171 8.07773 8.15135 8.06021C7.40233 8.04344 6.65255 8.05563 5.902 8.04801C5.52648 8.04697 5.15289 7.99415 4.7918 7.89105C4.37852 7.76475 3.99627 7.55332 3.66963 7.27038C3.34299 6.98745 3.0792 6.63926 2.89524 6.24822C2.55774 5.62762 2.36865 4.93724 2.3428 4.23127C2.26506 3.17168 2.54518 2.11665 3.13831 1.23518C3.54889 0.668034 4.14897 0.266634 4.8299 0.103642C5.10072 0.0340437 5.37931 -0.000779454 5.65893 1.32331e-05C8.41525 0.00356913 11.1716 0.00356913 13.9279 1.32331e-05C14.3089 1.32331e-05 14.3089 1.32165e-05 14.2129 0.381002C14.0758 0.983537 13.8164 1.55151 13.4509 2.04973C13.2273 2.37126 12.9285 2.63336 12.5806 2.81328C12.2327 2.99321 11.8462 3.08552 11.4545 3.08221C9.71264 3.07535 7.97077 3.08221 6.22889 3.08221C6.11593 3.07162 6.00199 3.08439 5.89418 3.11973C5.78637 3.15507 5.68699 3.21222 5.60222 3.28763C5.51745 3.36304 5.4491 3.45508 5.40144 3.55804C5.35378 3.661 5.32782 3.77267 5.32518 3.8861C5.28645 4.06589 5.28645 4.25187 5.32518 4.43167C5.36885 4.63421 5.48002 4.81592 5.64047 4.94702C5.80091 5.07812 6.00113 5.15084 6.20831 5.15326C8.03045 5.15326 9.8531 5.15326 11.6763 5.15326C11.9556 5.14849 12.2344 5.18077 12.5053 5.24927C13.3353 5.43819 14.0923 5.86474 14.6838 6.47682C15.0751 6.91206 15.3715 7.42406 15.554 7.9802C15.7385 8.53992 15.8579 9.11903 15.9098 9.70608C15.9936 10.5519 16.019 11.4025 15.986 12.2518C15.9677 12.7631 15.957 13.2744 15.9304 13.7819" fill="#FFD615"/>
<path d="M0.313348 3.2168C0.332752 3.29911 0.338671 3.38404 0.330873 3.46825C0.310734 4.71997 0.731517 5.9389 1.51956 6.91163C1.9887 7.46067 2.5737 7.8989 3.23248 8.19479C3.96329 8.52269 4.74159 8.73231 5.53822 8.8158C6.0806 8.87995 6.62654 8.90922 7.17266 8.90343C8.19905 8.89886 9.22543 8.89124 10.2511 8.90343C11.2739 8.90765 12.2737 9.20775 13.1298 9.76751C14.1182 10.4184 14.8164 11.4266 15.0782 12.5807C15.2903 13.4092 15.3569 14.2683 15.2748 15.1196C15.2542 15.3421 15.2374 15.5639 15.2184 15.7864C15.2253 15.8626 15.2042 15.9387 15.1589 16.0005C15.0827 15.9753 15.0873 15.9052 15.0751 15.8481C14.9845 15.4435 14.8968 15.0381 14.8092 14.6289C14.7239 14.1844 14.5868 13.7515 14.4008 13.3389C14.142 12.7963 13.7012 12.3616 13.1549 12.1106C12.5733 11.8484 11.9518 11.6859 11.3163 11.6298C10.5672 11.5548 9.81425 11.5256 9.06161 11.5422C8.50765 11.5422 7.95369 11.5483 7.4005 11.5422C7.00808 11.5376 6.62023 11.578 6.23086 11.6115C5.78906 11.6468 5.34492 11.6406 4.90426 11.5932C4.33656 11.5428 3.77745 11.4212 3.2401 11.2313C2.60401 11.0105 2.022 10.6573 1.53251 10.195C0.888888 9.55779 0.437383 8.75247 0.22953 7.87095C0.0863502 7.29748 0.00964787 6.70943 0.000937321 6.11841C-0.00961742 5.21047 0.0689892 4.30368 0.235626 3.4111C0.245412 3.35818 0.257873 3.30579 0.272963 3.25414C0.272963 3.24271 0.292013 3.23508 0.3103 3.2168" fill="#76B32E"/>
</svg>
