<svg width="16" height="16" viewBox="0 0 16 16" fill="none" xmlns="http://www.w3.org/2000/svg">
<path d="M13.5389 15.4768C13.3748 15.4781 13.2123 15.4444 13.0623 15.3779C12.9122 15.3114 12.7781 15.2138 12.6688 15.0914C12.4311 14.8403 12.3014 14.5059 12.3076 14.1602C12.3012 13.8147 12.4309 13.4804 12.6688 13.2297C12.778 13.1072 12.9121 13.0095 13.0621 12.9429C13.2122 12.8763 13.3747 12.8424 13.5389 12.8436H4.92368C5.08774 12.8424 5.25015 12.8763 5.40007 12.9429C5.55 13.0095 5.68397 13.1072 5.79305 13.2297C6.03092 13.4804 6.16065 13.8147 6.15421 14.1602C6.16044 14.5059 6.03076 14.8403 5.79305 15.0914C5.68384 15.2137 5.54982 15.3114 5.39992 15.3779C5.25001 15.4444 5.08766 15.478 4.92368 15.4768C4.75936 15.478 4.59667 15.4444 4.44639 15.3779C4.29611 15.3114 4.16168 15.2138 4.05203 15.0914C3.81516 14.8399 3.68608 14.5056 3.69239 14.1602C3.68587 13.815 3.81499 13.4808 4.05203 13.2297C4.16146 13.107 4.29582 13.0091 4.44614 12.9425C4.59646 12.8759 4.75927 12.8422 4.92368 12.8436H4.30804C4.22638 12.8436 4.14564 12.8264 4.07116 12.793C3.99669 12.7595 3.93017 12.7105 3.87602 12.6493C3.75654 12.525 3.69085 12.3586 3.69316 12.1862C3.704 12.0456 3.73986 11.9079 3.79907 11.7799C3.87145 11.6008 3.96669 11.3953 4.08251 11.1705L4.14575 11.0455L4.15946 11.0187C4.23108 10.8777 4.2707 10.8001 4.27909 10.7795L2.57768 2.31819H0.616459C0.534386 2.31851 0.453204 2.30138 0.378406 2.2676C0.303608 2.23381 0.236941 2.18429 0.182918 2.1225C0.0635538 1.99836 -0.0021379 1.83226 5.30977e-05 1.66006C-0.00205567 1.48787 0.0636242 1.32143 0.182918 1.19724C0.236865 1.13525 0.303482 1.08582 0.378272 1.05177C0.453062 1.01773 0.534285 1.00003 0.616459 1.00006H3.07751C3.17283 0.998677 3.26694 1.02142 3.35105 1.06628C3.42541 1.10578 3.49079 1.16023 3.54306 1.22626C3.59875 1.30233 3.64102 1.38743 3.66801 1.47776C3.69878 1.56679 3.72297 1.65789 3.7404 1.75046C3.75335 1.82666 3.77087 1.92639 3.79297 2.05516C3.81507 2.18393 3.83031 2.2725 3.83564 2.31745H15.3851C15.4668 2.31731 15.5477 2.33478 15.6222 2.36842C15.6967 2.40206 15.7631 2.45098 15.8171 2.5124C15.9364 2.63654 16.0021 2.80264 15.9999 2.97484V8.23994C16.0019 8.39883 15.9479 8.55353 15.8476 8.67671C15.7507 8.79959 15.609 8.87908 15.4536 8.8977L5.41361 10.1507C5.41894 10.1942 5.43189 10.2628 5.45628 10.3717C5.48066 10.4807 5.50047 10.5724 5.51418 10.6441C5.52989 10.7192 5.53806 10.7957 5.53857 10.8725C5.49954 11.1026 5.42228 11.3245 5.30998 11.5291H14.1561C14.238 11.529 14.3189 11.5466 14.3935 11.5805C14.468 11.6144 14.5344 11.6641 14.5881 11.7259C14.7077 11.8496 14.7734 12.0156 14.7709 12.1876C14.7733 12.3601 14.7076 12.5265 14.5881 12.6508C14.5339 12.712 14.4674 12.7609 14.3929 12.7944C14.3185 12.8279 14.2377 12.8451 14.1561 12.845H13.5412C13.7053 12.8437 13.8677 12.8774 14.0177 12.944C14.1676 13.0106 14.3016 13.1089 14.4105 13.2316C14.6484 13.4822 14.7781 13.8162 14.7717 14.1617C14.7779 14.5074 14.6483 14.8418 14.4105 15.0929C14.3011 15.2154 14.1666 15.3131 14.0163 15.3794C13.866 15.4456 13.7032 15.4787 13.5389 15.4768ZM7.83809 3.6873V7.92147H9.38253C9.77366 7.94689 10.1613 7.83392 10.4774 7.60226C10.6062 7.4888 10.7074 7.34735 10.7734 7.18893C10.8395 7.03051 10.8685 6.85912 10.8584 6.68779C10.8643 6.46698 10.7985 6.25018 10.671 6.06984C10.5394 5.8943 10.3508 5.77014 10.1376 5.71863C10.3218 5.64581 10.4806 5.52106 10.5948 5.35924C10.6991 5.20446 10.7541 5.0217 10.7525 4.83504C10.7631 4.67252 10.7346 4.50949 10.6692 4.36032C10.6038 4.21114 10.5036 4.08019 10.3769 3.97786C10.0535 3.76536 9.66958 3.66392 9.28348 3.68953L7.83809 3.6873ZM9.39091 7.33477H8.57336V6.01068H9.44806C9.53932 6.00019 9.63177 6.01018 9.7185 6.04044C9.80522 6.07071 9.88399 6.12018 9.94891 6.18517C10.0138 6.25016 10.0632 6.32907 10.0934 6.41583C10.1236 6.5026 10.1337 6.59506 10.1231 6.6863C10.1279 6.7751 10.1129 6.86403 10.0793 6.94636C10.0457 7.02869 9.99435 7.10239 9.92884 7.16251C9.77667 7.28385 9.58526 7.34518 9.39091 7.33477ZM9.29491 5.46974H8.57336V4.28033H9.28881C9.48461 4.26445 9.68015 4.31343 9.84503 4.42021C9.90816 4.47642 9.95723 4.54698 9.98833 4.62558C10.0194 4.70418 10.0317 4.7888 10.0241 4.87299C10.0288 4.95648 10.0138 5.04004 9.98031 5.11667C9.94682 5.19331 9.89578 5.26095 9.83131 5.31422C9.67575 5.42567 9.48597 5.48059 9.29491 5.46974Z" fill="#195279"/>
</svg>
