<svg xmlns="http://www.w3.org/2000/svg" xmlns:xlink="http://www.w3.org/1999/xlink" width="1920" height="1080" viewBox="0 0 1920 1080">
  <defs>
    <clipPath id="clip-path">
      <rect id="Rectangle_2483" data-name="Rectangle 2483" width="1920" height="1080" fill="#fff" stroke="#707070" stroke-width="1"/>
    </clipPath>
    <linearGradient id="linear-gradient" x1="0.5" x2="0.5" y2="1" gradientUnits="objectBoundingBox">
      <stop offset="0" stop-color="#d6e9f8"/>
      <stop offset="0.36" stop-color="#fcfdfe"/>
      <stop offset="1" stop-color="#fff"/>
    </linearGradient>
    <linearGradient id="linear-gradient-2" x1="0.5" x2="0.5" y2="1" gradientUnits="objectBoundingBox">
      <stop offset="0" stop-color="#fff"/>
      <stop offset="1" stop-color="#f3f8fc"/>
    </linearGradient>
    <linearGradient id="linear-gradient-3" x1="0.5" x2="0.5" y2="1" gradientUnits="objectBoundingBox">
      <stop offset="0" stop-color="#fff"/>
      <stop offset="1" stop-color="#f7fafd"/>
    </linearGradient>
    <linearGradient id="linear-gradient-4" x1="0.5" x2="0.5" y2="1" gradientUnits="objectBoundingBox">
      <stop offset="0" stop-color="#fff" stop-opacity="0.502"/>
      <stop offset="1" stop-color="#dfeef9"/>
    </linearGradient>
    <linearGradient id="linear-gradient-5" x1="0.5" x2="0.5" y2="1" gradientUnits="objectBoundingBox">
      <stop offset="0" stop-color="#fff" stop-opacity="0.502"/>
      <stop offset="1" stop-color="#dfeefa"/>
    </linearGradient>
  </defs>
  <g id="Mask_Group_1" data-name="Mask Group 1" clip-path="url(#clip-path)">
    <g id="Group_21183" data-name="Group 21183">
      <rect id="Rectangle_204" data-name="Rectangle 204" width="1920" height="1080" fill="url(#linear-gradient)"/>
      <g id="Group_21181" data-name="Group 21181" transform="translate(0 614.169)">
        <rect id="Rectangle_2224" data-name="Rectangle 2224" width="152.352" height="493.806" transform="translate(380.439 222.773)" fill="#dcf4ff"/>
        <rect id="Rectangle_2225" data-name="Rectangle 2225" width="122.295" height="493.806" transform="translate(988.001 59.669)" fill="#dcf4ff"/>
        <rect id="Rectangle_2226" data-name="Rectangle 2226" width="76.176" height="493.806" transform="translate(675.674 33.72)" fill="#dcf4ff"/>
        <rect id="Rectangle_2227" data-name="Rectangle 2227" width="76.176" height="493.806" transform="translate(1792.06 28.253)" fill="#dcf4ff"/>
        <rect id="Rectangle_2228" data-name="Rectangle 2228" width="159.461" height="493.806" transform="translate(1487.936)" fill="#dcf4ff"/>
        <rect id="Rectangle_2229" data-name="Rectangle 2229" width="173.496" height="493.806" transform="translate(796.399 155.794)" fill="#dcf4ff"/>
        <rect id="Rectangle_2230" data-name="Rectangle 2230" width="173.496" height="493.806" transform="translate(167.976 122.007)" fill="#dcf4ff"/>
        <rect id="Rectangle_2231" data-name="Rectangle 2231" width="87.077" height="429.788" transform="translate(0 330.577)" fill="#a8ddf4"/>
        <rect id="Rectangle_2232" data-name="Rectangle 2232" width="87.077" height="429.788" transform="translate(857.234 322.383)" fill="#a8ddf4"/>
        <rect id="Rectangle_2233" data-name="Rectangle 2233" width="96.379" height="429.788" transform="translate(1363.995 323.007)" fill="#c7ebff"/>
        <rect id="Rectangle_2234" data-name="Rectangle 2234" width="106.171" height="654.338" transform="translate(80.88 97.992)" fill="#a8ddf4"/>
        <rect id="Rectangle_2235" data-name="Rectangle 2235" width="59.952" height="654.342" transform="translate(103.987 59.487)" fill="#a8ddf4"/>
        <rect id="Rectangle_2236" data-name="Rectangle 2236" width="106.171" height="654.338" transform="translate(136.032 97.992)" fill="#c7ebff"/>
        <rect id="Rectangle_2237" data-name="Rectangle 2237" width="59.952" height="654.342" transform="translate(159.14 59.487)" fill="#c7ebff"/>
        <rect id="Rectangle_2238" data-name="Rectangle 2238" width="55.152" height="12.504" transform="translate(103.987 85.488)" fill="#8ec9ed"/>
        <rect id="Rectangle_2239" data-name="Rectangle 2239" width="59.952" height="12.504" transform="translate(159.14 85.488)" fill="#a8ddf4"/>
        <rect id="Rectangle_2240" data-name="Rectangle 2240" width="5.328" height="71.727" transform="translate(133.964 6.403)" fill="#a8ddf4"/>
        <rect id="Rectangle_2241" data-name="Rectangle 2241" width="5.328" height="40.373" transform="translate(116.031 39.134)" fill="#a8ddf4"/>
        <rect id="Rectangle_2242" data-name="Rectangle 2242" width="82.819" height="14.347" transform="translate(150.98 145.436)" fill="#a8ddf4"/>
        <rect id="Rectangle_2243" data-name="Rectangle 2243" width="82.819" height="14.347" transform="translate(150.98 178.464)" fill="#a8ddf4"/>
        <rect id="Rectangle_2244" data-name="Rectangle 2244" width="82.819" height="14.347" transform="translate(150.98 211.489)" fill="#a8ddf4"/>
        <rect id="Rectangle_2245" data-name="Rectangle 2245" width="82.819" height="14.347" transform="translate(150.98 244.513)" fill="#a8ddf4"/>
        <rect id="Rectangle_2246" data-name="Rectangle 2246" width="82.819" height="14.347" transform="translate(150.98 277.537)" fill="#a8ddf4"/>
        <rect id="Rectangle_2247" data-name="Rectangle 2247" width="82.819" height="14.347" transform="translate(150.98 310.561)" fill="#a8ddf4"/>
        <rect id="Rectangle_2248" data-name="Rectangle 2248" width="82.819" height="14.347" transform="translate(150.98 343.585)" fill="#a8ddf4"/>
        <rect id="Rectangle_2249" data-name="Rectangle 2249" width="82.819" height="14.347" transform="translate(150.98 376.614)" fill="#a8ddf4"/>
        <rect id="Rectangle_2250" data-name="Rectangle 2250" width="82.819" height="14.347" transform="translate(150.98 409.638)" fill="#a8ddf4"/>
        <rect id="Rectangle_2251" data-name="Rectangle 2251" width="82.819" height="14.347" transform="translate(150.98 442.662)" fill="#a8ddf4"/>
        <rect id="Rectangle_2252" data-name="Rectangle 2252" width="82.819" height="14.347" transform="translate(150.98 475.686)" fill="#a8ddf4"/>
        <rect id="Rectangle_2253" data-name="Rectangle 2253" width="82.819" height="14.347" transform="translate(150.98 508.71)" fill="#a8ddf4"/>
        <rect id="Rectangle_2254" data-name="Rectangle 2254" width="82.819" height="14.347" transform="translate(150.98 541.734)" fill="#a8ddf4"/>
        <rect id="Rectangle_2255" data-name="Rectangle 2255" width="82.819" height="14.347" transform="translate(150.98 574.763)" fill="#a8ddf4"/>
        <rect id="Rectangle_2256" data-name="Rectangle 2256" width="82.819" height="14.347" transform="translate(150.98 607.787)" fill="#a8ddf4"/>
        <rect id="Rectangle_2257" data-name="Rectangle 2257" width="7.33" height="495.424" transform="translate(188.722 128.904)" fill="#c7ebff"/>
        <rect id="Rectangle_2258" data-name="Rectangle 2258" width="108.898" height="616.926" transform="translate(595.705 148.364)" fill="#c7ebff"/>
        <rect id="Rectangle_2259" data-name="Rectangle 2259" width="54.451" height="616.926" transform="translate(541.254 148.364)" fill="#a8ddf4"/>
        <rect id="Rectangle_2260" data-name="Rectangle 2260" width="13.09" height="574.11" transform="translate(691.514 148.368)" fill="#a8ddf4"/>
        <rect id="Rectangle_2261" data-name="Rectangle 2261" width="108.898" height="13.09" transform="translate(595.705 148.364)" fill="#a8ddf4"/>
        <rect id="Rectangle_2262" data-name="Rectangle 2262" width="66.576" height="6.547" transform="translate(638.022 181.728)" fill="#a8ddf4"/>
        <rect id="Rectangle_2263" data-name="Rectangle 2263" width="66.576" height="6.547" transform="translate(638.022 199.599)" fill="#a8ddf4"/>
        <rect id="Rectangle_2264" data-name="Rectangle 2264" width="66.576" height="6.547" transform="translate(638.022 217.465)" fill="#a8ddf4"/>
        <rect id="Rectangle_2265" data-name="Rectangle 2265" width="66.576" height="6.547" transform="translate(638.022 235.335)" fill="#a8ddf4"/>
        <rect id="Rectangle_2266" data-name="Rectangle 2266" width="66.576" height="6.547" transform="translate(638.022 253.205)" fill="#a8ddf4"/>
        <rect id="Rectangle_2267" data-name="Rectangle 2267" width="66.576" height="6.547" transform="translate(638.022 271.071)" fill="#a8ddf4"/>
        <rect id="Rectangle_2268" data-name="Rectangle 2268" width="66.576" height="6.547" transform="translate(638.022 288.941)" fill="#a8ddf4"/>
        <rect id="Rectangle_2269" data-name="Rectangle 2269" width="66.576" height="6.542" transform="translate(638.022 306.812)" fill="#a8ddf4"/>
        <rect id="Rectangle_2270" data-name="Rectangle 2270" width="66.576" height="6.547" transform="translate(638.022 324.678)" fill="#a8ddf4"/>
        <rect id="Rectangle_2271" data-name="Rectangle 2271" width="66.576" height="6.547" transform="translate(638.022 342.548)" fill="#a8ddf4"/>
        <rect id="Rectangle_2272" data-name="Rectangle 2272" width="66.576" height="6.547" transform="translate(638.022 360.414)" fill="#a8ddf4"/>
        <rect id="Rectangle_2273" data-name="Rectangle 2273" width="66.576" height="6.547" transform="translate(638.022 378.284)" fill="#a8ddf4"/>
        <rect id="Rectangle_2274" data-name="Rectangle 2274" width="66.576" height="6.547" transform="translate(638.022 396.155)" fill="#a8ddf4"/>
        <rect id="Rectangle_2275" data-name="Rectangle 2275" width="66.576" height="6.547" transform="translate(638.022 414.02)" fill="#a8ddf4"/>
        <rect id="Rectangle_2276" data-name="Rectangle 2276" width="66.576" height="6.547" transform="translate(638.022 431.891)" fill="#a8ddf4"/>
        <rect id="Rectangle_2277" data-name="Rectangle 2277" width="66.576" height="6.547" transform="translate(638.022 449.761)" fill="#a8ddf4"/>
        <rect id="Rectangle_2278" data-name="Rectangle 2278" width="66.576" height="6.547" transform="translate(638.022 467.627)" fill="#a8ddf4"/>
        <rect id="Rectangle_2279" data-name="Rectangle 2279" width="66.576" height="6.547" transform="translate(638.022 485.497)" fill="#a8ddf4"/>
        <rect id="Rectangle_2280" data-name="Rectangle 2280" width="66.576" height="6.547" transform="translate(638.022 503.368)" fill="#a8ddf4"/>
        <rect id="Rectangle_2281" data-name="Rectangle 2281" width="66.576" height="6.547" transform="translate(638.022 521.233)" fill="#a8ddf4"/>
        <rect id="Rectangle_2282" data-name="Rectangle 2282" width="66.576" height="6.547" transform="translate(638.022 539.104)" fill="#a8ddf4"/>
        <rect id="Rectangle_2283" data-name="Rectangle 2283" width="59.693" height="624.846" transform="translate(496.446 115.167)" fill="#a8ddf4"/>
        <rect id="Rectangle_2284" data-name="Rectangle 2284" width="11.04" height="601.13" transform="translate(557.44 148.364)" fill="#a8ddf4"/>
        <rect id="Rectangle_2285" data-name="Rectangle 2285" width="44.808" height="6.254" transform="translate(496.446 127.397)" fill="#c7ebff"/>
        <rect id="Rectangle_2286" data-name="Rectangle 2286" width="44.808" height="6.254" transform="translate(496.446 138.37)" fill="#c7ebff"/>
        <rect id="Rectangle_2287" data-name="Rectangle 2287" width="44.808" height="6.254" transform="translate(496.446 149.343)" fill="#c7ebff"/>
        <rect id="Rectangle_2288" data-name="Rectangle 2288" width="44.808" height="6.254" transform="translate(496.446 160.316)" fill="#c7ebff"/>
        <rect id="Rectangle_2289" data-name="Rectangle 2289" width="44.808" height="6.254" transform="translate(496.446 171.288)" fill="#c7ebff"/>
        <rect id="Rectangle_2290" data-name="Rectangle 2290" width="44.808" height="6.254" transform="translate(496.446 182.261)" fill="#c7ebff"/>
        <rect id="Rectangle_2291" data-name="Rectangle 2291" width="44.808" height="6.254" transform="translate(496.446 193.234)" fill="#c7ebff"/>
        <rect id="Rectangle_2292" data-name="Rectangle 2292" width="44.808" height="6.254" transform="translate(496.446 204.207)" fill="#c7ebff"/>
        <rect id="Rectangle_2293" data-name="Rectangle 2293" width="44.808" height="6.254" transform="translate(496.446 215.18)" fill="#c7ebff"/>
        <rect id="Rectangle_2294" data-name="Rectangle 2294" width="44.808" height="6.254" transform="translate(496.446 226.153)" fill="#c7ebff"/>
        <rect id="Rectangle_2295" data-name="Rectangle 2295" width="44.808" height="6.254" transform="translate(496.446 237.125)" fill="#c7ebff"/>
        <rect id="Rectangle_2296" data-name="Rectangle 2296" width="44.808" height="6.254" transform="translate(496.446 248.098)" fill="#c7ebff"/>
        <rect id="Rectangle_2297" data-name="Rectangle 2297" width="44.808" height="6.254" transform="translate(496.446 259.071)" fill="#c7ebff"/>
        <rect id="Rectangle_2298" data-name="Rectangle 2298" width="44.808" height="6.254" transform="translate(496.446 270.044)" fill="#c7ebff"/>
        <rect id="Rectangle_2299" data-name="Rectangle 2299" width="44.808" height="6.254" transform="translate(496.446 281.017)" fill="#c7ebff"/>
        <rect id="Rectangle_2300" data-name="Rectangle 2300" width="44.808" height="6.254" transform="translate(496.446 291.99)" fill="#c7ebff"/>
        <rect id="Rectangle_2301" data-name="Rectangle 2301" width="44.808" height="6.254" transform="translate(496.446 302.962)" fill="#c7ebff"/>
        <rect id="Rectangle_2302" data-name="Rectangle 2302" width="44.808" height="6.254" transform="translate(496.446 313.935)" fill="#c7ebff"/>
        <rect id="Rectangle_2303" data-name="Rectangle 2303" width="44.808" height="6.254" transform="translate(496.446 324.908)" fill="#c7ebff"/>
        <rect id="Rectangle_2304" data-name="Rectangle 2304" width="44.808" height="6.254" transform="translate(496.446 335.876)" fill="#c7ebff"/>
        <rect id="Rectangle_2305" data-name="Rectangle 2305" width="44.808" height="6.254" transform="translate(496.446 346.849)" fill="#c7ebff"/>
        <rect id="Rectangle_2306" data-name="Rectangle 2306" width="44.808" height="6.254" transform="translate(496.446 357.822)" fill="#c7ebff"/>
        <rect id="Rectangle_2307" data-name="Rectangle 2307" width="44.808" height="6.254" transform="translate(496.446 368.794)" fill="#c7ebff"/>
        <rect id="Rectangle_2308" data-name="Rectangle 2308" width="44.808" height="6.254" transform="translate(496.446 379.767)" fill="#c7ebff"/>
        <rect id="Rectangle_2309" data-name="Rectangle 2309" width="44.808" height="6.254" transform="translate(496.446 390.74)" fill="#c7ebff"/>
        <rect id="Rectangle_2310" data-name="Rectangle 2310" width="44.808" height="6.254" transform="translate(496.446 401.713)" fill="#c7ebff"/>
        <rect id="Rectangle_2311" data-name="Rectangle 2311" width="44.808" height="6.254" transform="translate(496.446 412.686)" fill="#c7ebff"/>
        <rect id="Rectangle_2312" data-name="Rectangle 2312" width="44.808" height="6.254" transform="translate(496.446 423.659)" fill="#c7ebff"/>
        <rect id="Rectangle_2313" data-name="Rectangle 2313" width="44.808" height="6.254" transform="translate(496.446 434.631)" fill="#c7ebff"/>
        <rect id="Rectangle_2314" data-name="Rectangle 2314" width="44.808" height="6.254" transform="translate(496.446 445.604)" fill="#c7ebff"/>
        <rect id="Rectangle_2315" data-name="Rectangle 2315" width="44.808" height="6.254" transform="translate(496.446 456.577)" fill="#c7ebff"/>
        <rect id="Rectangle_2316" data-name="Rectangle 2316" width="44.808" height="6.254" transform="translate(496.446 467.55)" fill="#c7ebff"/>
        <rect id="Rectangle_2317" data-name="Rectangle 2317" width="44.808" height="6.254" transform="translate(496.446 478.523)" fill="#c7ebff"/>
        <rect id="Rectangle_2318" data-name="Rectangle 2318" width="44.808" height="6.254" transform="translate(496.446 489.496)" fill="#c7ebff"/>
        <rect id="Rectangle_2319" data-name="Rectangle 2319" width="44.808" height="6.254" transform="translate(496.446 500.468)" fill="#c7ebff"/>
        <rect id="Rectangle_2320" data-name="Rectangle 2320" width="44.808" height="6.254" transform="translate(496.446 511.441)" fill="#c7ebff"/>
        <rect id="Rectangle_2321" data-name="Rectangle 2321" width="44.808" height="6.254" transform="translate(496.446 522.414)" fill="#c7ebff"/>
        <rect id="Rectangle_2322" data-name="Rectangle 2322" width="44.808" height="6.254" transform="translate(496.446 533.387)" fill="#c7ebff"/>
        <rect id="Rectangle_2323" data-name="Rectangle 2323" width="44.808" height="6.254" transform="translate(496.446 544.36)" fill="#c7ebff"/>
        <rect id="Rectangle_2324" data-name="Rectangle 2324" width="44.808" height="6.254" transform="translate(496.446 555.333)" fill="#c7ebff"/>
        <rect id="Rectangle_2325" data-name="Rectangle 2325" width="44.808" height="6.254" transform="translate(496.446 566.305)" fill="#c7ebff"/>
        <rect id="Rectangle_2326" data-name="Rectangle 2326" width="44.808" height="6.254" transform="translate(496.446 577.278)" fill="#c7ebff"/>
        <rect id="Rectangle_2327" data-name="Rectangle 2327" width="44.808" height="6.254" transform="translate(496.446 588.251)" fill="#c7ebff"/>
        <rect id="Rectangle_2328" data-name="Rectangle 2328" width="44.808" height="6.254" transform="translate(496.446 599.224)" fill="#c7ebff"/>
        <rect id="Rectangle_2329" data-name="Rectangle 2329" width="44.808" height="6.254" transform="translate(496.446 610.197)" fill="#c7ebff"/>
        <rect id="Rectangle_2330" data-name="Rectangle 2330" width="44.808" height="6.254" transform="translate(496.446 621.17)" fill="#c7ebff"/>
        <rect id="Rectangle_2331" data-name="Rectangle 2331" width="44.808" height="6.254" transform="translate(496.446 632.142)" fill="#c7ebff"/>
        <rect id="Rectangle_2332" data-name="Rectangle 2332" width="44.808" height="6.254" transform="translate(496.446 643.115)" fill="#c7ebff"/>
        <rect id="Rectangle_2333" data-name="Rectangle 2333" width="44.808" height="6.254" transform="translate(496.446 654.088)" fill="#c7ebff"/>
        <rect id="Rectangle_2334" data-name="Rectangle 2334" width="44.808" height="6.254" transform="translate(496.446 665.061)" fill="#c7ebff"/>
        <rect id="Rectangle_2335" data-name="Rectangle 2335" width="44.808" height="6.254" transform="translate(496.446 676.034)" fill="#c7ebff"/>
        <rect id="Rectangle_2336" data-name="Rectangle 2336" width="44.808" height="6.254" transform="translate(496.446 687.002)" fill="#c7ebff"/>
        <rect id="Rectangle_2337" data-name="Rectangle 2337" width="44.808" height="6.254" transform="translate(496.446 697.979)" fill="#c7ebff"/>
        <rect id="Rectangle_2338" data-name="Rectangle 2338" width="44.808" height="6.254" transform="translate(496.446 708.947)" fill="#c7ebff"/>
        <rect id="Rectangle_2339" data-name="Rectangle 2339" width="231.385" height="509.502" transform="translate(1522.689 239.276)" fill="#a8ddf4"/>
        <rect id="Rectangle_2340" data-name="Rectangle 2340" width="157.992" height="509.502" transform="translate(1559.385 135.85)" fill="#a8ddf4"/>
        <rect id="Rectangle_2341" data-name="Rectangle 2341" width="231.385" height="509.502" transform="translate(1610.697 239.276)" fill="#c7ebff"/>
        <rect id="Rectangle_2342" data-name="Rectangle 2342" width="157.992" height="509.502" transform="translate(1647.393 135.85)" fill="#c7ebff"/>
        <rect id="Rectangle_2343" data-name="Rectangle 2343" width="88.013" height="10.877" transform="translate(1559.385 228.399)" fill="#a8ddf4"/>
        <rect id="Rectangle_2344" data-name="Rectangle 2344" width="157.992" height="10.877" transform="translate(1647.393 228.399)" fill="#a8ddf4"/>
        <rect id="Rectangle_2345" data-name="Rectangle 2345" width="9.019" height="475.23" transform="translate(1638.378 262.249)" fill="#a8ddf4"/>
        <rect id="Rectangle_2346" data-name="Rectangle 2346" width="9.019" height="475.23" transform="translate(1657.689 262.249)" fill="#a8ddf4"/>
        <rect id="Rectangle_2347" data-name="Rectangle 2347" width="9.014" height="475.23" transform="translate(1676.999 262.249)" fill="#a8ddf4"/>
        <rect id="Rectangle_2348" data-name="Rectangle 2348" width="9.019" height="475.23" transform="translate(1696.305 262.249)" fill="#a8ddf4"/>
        <rect id="Rectangle_2349" data-name="Rectangle 2349" width="9.014" height="475.23" transform="translate(1715.62 262.249)" fill="#a8ddf4"/>
        <rect id="Rectangle_2350" data-name="Rectangle 2350" width="9.014" height="475.23" transform="translate(1734.931 262.249)" fill="#a8ddf4"/>
        <rect id="Rectangle_2351" data-name="Rectangle 2351" width="9.019" height="475.23" transform="translate(1754.236 262.249)" fill="#a8ddf4"/>
        <rect id="Rectangle_2352" data-name="Rectangle 2352" width="9.014" height="475.23" transform="translate(1773.547 262.249)" fill="#a8ddf4"/>
        <rect id="Rectangle_2353" data-name="Rectangle 2353" width="9.019" height="475.23" transform="translate(1792.853 262.249)" fill="#bacae0"/>
        <rect id="Rectangle_2354" data-name="Rectangle 2354" width="9.019" height="475.23" transform="translate(1812.163 262.249)" fill="#bacae0"/>
        <rect id="Rectangle_2355" data-name="Rectangle 2355" width="122.309" height="52.968" transform="translate(1666.708 157.196)" fill="#a8ddf4"/>
        <rect id="Rectangle_2356" data-name="Rectangle 2356" width="108.595" height="445.806" transform="translate(1477.175 296.089)" fill="#c7ebff"/>
        <rect id="Rectangle_2357" data-name="Rectangle 2357" width="49.575" height="445.806" transform="translate(1427.6 296.089)" fill="#a8ddf4"/>
        <rect id="Rectangle_2358" data-name="Rectangle 2358" width="73.935" height="7.598" transform="translate(1499.327 332.502)" fill="#a8ddf4"/>
        <rect id="Rectangle_2359" data-name="Rectangle 2359" width="73.935" height="7.598" transform="translate(1499.327 359.382)" fill="#a8ddf4"/>
        <rect id="Rectangle_2360" data-name="Rectangle 2360" width="73.935" height="7.598" transform="translate(1499.327 386.257)" fill="#a8ddf4"/>
        <rect id="Rectangle_2361" data-name="Rectangle 2361" width="73.935" height="7.598" transform="translate(1499.327 413.137)" fill="#a8ddf4"/>
        <rect id="Rectangle_2362" data-name="Rectangle 2362" width="73.935" height="7.598" transform="translate(1499.327 440.012)" fill="#a8ddf4"/>
        <rect id="Rectangle_2363" data-name="Rectangle 2363" width="73.935" height="7.598" transform="translate(1499.327 466.892)" fill="#a8ddf4"/>
        <rect id="Rectangle_2364" data-name="Rectangle 2364" width="73.935" height="7.598" transform="translate(1499.327 493.768)" fill="#a8ddf4"/>
        <rect id="Rectangle_2365" data-name="Rectangle 2365" width="73.935" height="7.598" transform="translate(1499.327 520.648)" fill="#a8ddf4"/>
        <rect id="Rectangle_2366" data-name="Rectangle 2366" width="73.935" height="7.598" transform="translate(1499.327 547.523)" fill="#a8ddf4"/>
        <rect id="Rectangle_2367" data-name="Rectangle 2367" width="73.935" height="7.598" transform="translate(1499.327 574.403)" fill="#a8ddf4"/>
        <rect id="Rectangle_2368" data-name="Rectangle 2368" width="73.935" height="7.598" transform="translate(1499.327 601.278)" fill="#a8ddf4"/>
        <rect id="Rectangle_2369" data-name="Rectangle 2369" width="73.935" height="7.598" transform="translate(1499.327 628.158)" fill="#a8ddf4"/>
        <rect id="Rectangle_2370" data-name="Rectangle 2370" width="73.935" height="7.598" transform="translate(1499.327 655.034)" fill="#a8ddf4"/>
        <rect id="Rectangle_2371" data-name="Rectangle 2371" width="73.935" height="7.598" transform="translate(1499.327 681.914)" fill="#a8ddf4"/>
        <rect id="Rectangle_2372" data-name="Rectangle 2372" width="6.619" height="383.886" transform="translate(1499.332 332.502)" fill="#a8ddf4"/>
        <rect id="Rectangle_2373" data-name="Rectangle 2373" width="47.083" height="444.025" transform="translate(459.366 305.727)" fill="#c7ebff"/>
        <rect id="Rectangle_2374" data-name="Rectangle 2374" width="38.314" height="444.025" transform="translate(421.052 305.727)" fill="#a8ddf4"/>
        <rect id="Rectangle_2375" data-name="Rectangle 2375" width="47.083" height="552.371" transform="translate(1316.912 204.567)" fill="#c7ebff"/>
        <rect id="Rectangle_2376" data-name="Rectangle 2376" width="38.314" height="552.371" transform="translate(1278.603 204.567)" fill="#a8ddf4"/>
        <rect id="Rectangle_2377" data-name="Rectangle 2377" width="182.012" height="217.45" transform="translate(254.727 324.908)" fill="#c7ebff"/>
        <rect id="Rectangle_2378" data-name="Rectangle 2378" width="20.04" height="20.045" transform="translate(335.713 347.401)" fill="#a8ddf4"/>
        <rect id="Rectangle_2379" data-name="Rectangle 2379" width="20.04" height="20.045" transform="translate(276.951 347.401)" fill="#a8ddf4"/>
        <rect id="Rectangle_2380" data-name="Rectangle 2380" width="20.045" height="20.045" transform="translate(394.47 347.401)" fill="#a8ddf4"/>
        <rect id="Rectangle_2381" data-name="Rectangle 2381" width="20.04" height="20.045" transform="translate(335.713 385.354)" fill="#a8ddf4"/>
        <rect id="Rectangle_2382" data-name="Rectangle 2382" width="20.04" height="20.045" transform="translate(276.951 385.354)" fill="#a8ddf4"/>
        <rect id="Rectangle_2383" data-name="Rectangle 2383" width="20.045" height="20.045" transform="translate(394.47 385.354)" fill="#a8ddf4"/>
        <rect id="Rectangle_2384" data-name="Rectangle 2384" width="20.04" height="20.045" transform="translate(335.713 423.313)" fill="#a8ddf4"/>
        <rect id="Rectangle_2385" data-name="Rectangle 2385" width="20.04" height="20.045" transform="translate(276.951 423.313)" fill="#a8ddf4"/>
        <rect id="Rectangle_2386" data-name="Rectangle 2386" width="20.045" height="20.045" transform="translate(394.47 423.313)" fill="#a8ddf4"/>
        <rect id="Rectangle_2387" data-name="Rectangle 2387" width="20.04" height="20.045" transform="translate(335.713 461.271)" fill="#a8ddf4"/>
        <rect id="Rectangle_2388" data-name="Rectangle 2388" width="20.04" height="20.045" transform="translate(276.951 461.271)" fill="#a8ddf4"/>
        <rect id="Rectangle_2389" data-name="Rectangle 2389" width="20.045" height="20.045" transform="translate(394.47 461.271)" fill="#a8ddf4"/>
        <rect id="Rectangle_2390" data-name="Rectangle 2390" width="20.04" height="20.045" transform="translate(335.713 499.23)" fill="#a8ddf4"/>
        <rect id="Rectangle_2391" data-name="Rectangle 2391" width="20.045" height="20.045" transform="translate(394.47 499.23)" fill="#a8ddf4"/>
        <rect id="Rectangle_2392" data-name="Rectangle 2392" width="51.773" height="217.45" transform="translate(202.954 324.908)" fill="#a8ddf4"/>
        <rect id="Rectangle_2393" data-name="Rectangle 2393" width="182.012" height="217.45" transform="translate(1105.448 347.742)" fill="#c7ebff"/>
        <rect id="Rectangle_2394" data-name="Rectangle 2394" width="20.045" height="20.045" transform="translate(1186.429 370.235)" fill="#a8ddf4"/>
        <rect id="Rectangle_2395" data-name="Rectangle 2395" width="20.045" height="20.045" transform="translate(1127.667 370.235)" fill="#a8ddf4"/>
        <rect id="Rectangle_2396" data-name="Rectangle 2396" width="20.04" height="20.045" transform="translate(1245.195 370.235)" fill="#a8ddf4"/>
        <rect id="Rectangle_2397" data-name="Rectangle 2397" width="20.045" height="20.045" transform="translate(1186.429 408.188)" fill="#a8ddf4"/>
        <rect id="Rectangle_2398" data-name="Rectangle 2398" width="20.045" height="20.045" transform="translate(1127.667 408.188)" fill="#a8ddf4"/>
        <rect id="Rectangle_2399" data-name="Rectangle 2399" width="20.04" height="20.045" transform="translate(1245.195 408.188)" fill="#a8ddf4"/>
        <rect id="Rectangle_2400" data-name="Rectangle 2400" width="20.045" height="20.045" transform="translate(1186.429 446.147)" fill="#a8ddf4"/>
        <rect id="Rectangle_2401" data-name="Rectangle 2401" width="20.045" height="20.045" transform="translate(1127.667 446.147)" fill="#a8ddf4"/>
        <rect id="Rectangle_2402" data-name="Rectangle 2402" width="20.04" height="20.045" transform="translate(1245.195 446.147)" fill="#a8ddf4"/>
        <rect id="Rectangle_2403" data-name="Rectangle 2403" width="20.045" height="20.045" transform="translate(1186.429 484.105)" fill="#a8ddf4"/>
        <rect id="Rectangle_2404" data-name="Rectangle 2404" width="20.045" height="20.045" transform="translate(1127.667 484.105)" fill="#a8ddf4"/>
        <rect id="Rectangle_2405" data-name="Rectangle 2405" width="20.04" height="20.045" transform="translate(1245.195 484.105)" fill="#a8ddf4"/>
        <rect id="Rectangle_2406" data-name="Rectangle 2406" width="20.045" height="20.045" transform="translate(1186.429 522.064)" fill="#a8ddf4"/>
        <rect id="Rectangle_2407" data-name="Rectangle 2407" width="20.045" height="20.045" transform="translate(1127.667 522.064)" fill="#a8ddf4"/>
        <rect id="Rectangle_2408" data-name="Rectangle 2408" width="20.04" height="20.045" transform="translate(1245.195 522.064)" fill="#a8ddf4"/>
        <rect id="Rectangle_2409" data-name="Rectangle 2409" width="51.773" height="217.45" transform="translate(1053.675 347.742)" fill="#a8ddf4"/>
        <rect id="Rectangle_2410" data-name="Rectangle 2410" width="182.012" height="217.45" transform="translate(1105.448 542.109)" fill="#c7ebff"/>
        <rect id="Rectangle_2411" data-name="Rectangle 2411" width="20.045" height="20.045" transform="translate(1186.429 564.601)" fill="#a8ddf4"/>
        <rect id="Rectangle_2412" data-name="Rectangle 2412" width="20.045" height="20.045" transform="translate(1127.667 564.601)" fill="#a8ddf4"/>
        <rect id="Rectangle_2413" data-name="Rectangle 2413" width="20.04" height="20.045" transform="translate(1245.195 564.601)" fill="#a8ddf4"/>
        <rect id="Rectangle_2414" data-name="Rectangle 2414" width="20.045" height="20.045" transform="translate(1186.429 602.555)" fill="#a8ddf4"/>
        <rect id="Rectangle_2415" data-name="Rectangle 2415" width="20.045" height="20.045" transform="translate(1127.667 602.555)" fill="#a8ddf4"/>
        <rect id="Rectangle_2416" data-name="Rectangle 2416" width="20.04" height="20.045" transform="translate(1245.195 602.555)" fill="#a8ddf4"/>
        <rect id="Rectangle_2417" data-name="Rectangle 2417" width="20.04" height="20.045" transform="translate(1245.195 640.514)" fill="#a8ddf4"/>
        <rect id="Rectangle_2418" data-name="Rectangle 2418" width="20.045" height="20.045" transform="translate(1127.667 678.472)" fill="#a8ddf4"/>
        <rect id="Rectangle_2419" data-name="Rectangle 2419" width="20.04" height="20.045" transform="translate(1245.195 678.472)" fill="#a8ddf4"/>
        <rect id="Rectangle_2420" data-name="Rectangle 2420" width="20.045" height="20.045" transform="translate(1127.667 716.431)" fill="#a8ddf4"/>
        <rect id="Rectangle_2421" data-name="Rectangle 2421" width="51.773" height="217.45" transform="translate(1053.675 542.109)" fill="#a8ddf4"/>
        <rect id="Rectangle_2422" data-name="Rectangle 2422" width="97.109" height="544.413" transform="translate(980.81 220.417)" fill="#c7ebff"/>
        <rect id="Rectangle_2423" data-name="Rectangle 2423" width="60.322" height="6.787" transform="translate(999.204 246.898)" fill="#a8ddf4"/>
        <rect id="Rectangle_2424" data-name="Rectangle 2424" width="60.322" height="6.787" transform="translate(999.204 266.156)" fill="#a8ddf4"/>
        <rect id="Rectangle_2425" data-name="Rectangle 2425" width="60.322" height="6.787" transform="translate(999.204 285.413)" fill="#a8ddf4"/>
        <rect id="Rectangle_2426" data-name="Rectangle 2426" width="60.322" height="6.787" transform="translate(999.204 304.671)" fill="#a8ddf4"/>
        <rect id="Rectangle_2427" data-name="Rectangle 2427" width="60.322" height="6.787" transform="translate(999.204 323.929)" fill="#a8ddf4"/>
        <rect id="Rectangle_2428" data-name="Rectangle 2428" width="60.322" height="6.787" transform="translate(999.204 343.186)" fill="#a8ddf4"/>
        <rect id="Rectangle_2429" data-name="Rectangle 2429" width="60.322" height="6.787" transform="translate(999.204 362.444)" fill="#a8ddf4"/>
        <rect id="Rectangle_2430" data-name="Rectangle 2430" width="60.322" height="6.787" transform="translate(999.204 381.702)" fill="#a8ddf4"/>
        <rect id="Rectangle_2431" data-name="Rectangle 2431" width="60.322" height="6.787" transform="translate(999.204 400.959)" fill="#a8ddf4"/>
        <rect id="Rectangle_2432" data-name="Rectangle 2432" width="60.322" height="6.787" transform="translate(999.204 420.217)" fill="#a8ddf4"/>
        <rect id="Rectangle_2433" data-name="Rectangle 2433" width="60.322" height="6.787" transform="translate(999.204 439.475)" fill="#a8ddf4"/>
        <rect id="Rectangle_2434" data-name="Rectangle 2434" width="60.322" height="6.787" transform="translate(999.204 458.727)" fill="#a8ddf4"/>
        <rect id="Rectangle_2435" data-name="Rectangle 2435" width="60.322" height="6.787" transform="translate(999.204 477.985)" fill="#a8ddf4"/>
        <rect id="Rectangle_2436" data-name="Rectangle 2436" width="60.322" height="6.787" transform="translate(999.204 497.243)" fill="#a8ddf4"/>
        <rect id="Rectangle_2437" data-name="Rectangle 2437" width="60.322" height="6.787" transform="translate(999.204 516.5)" fill="#a8ddf4"/>
        <rect id="Rectangle_2438" data-name="Rectangle 2438" width="60.322" height="6.787" transform="translate(999.204 535.758)" fill="#a8ddf4"/>
        <rect id="Rectangle_2439" data-name="Rectangle 2439" width="60.322" height="6.787" transform="translate(999.204 555.016)" fill="#a8ddf4"/>
        <rect id="Rectangle_2440" data-name="Rectangle 2440" width="60.322" height="6.787" transform="translate(999.204 574.273)" fill="#a8ddf4"/>
        <rect id="Rectangle_2441" data-name="Rectangle 2441" width="60.322" height="6.787" transform="translate(999.204 593.531)" fill="#a8ddf4"/>
        <rect id="Rectangle_2442" data-name="Rectangle 2442" width="60.322" height="6.787" transform="translate(999.204 612.789)" fill="#a8ddf4"/>
        <rect id="Rectangle_2443" data-name="Rectangle 2443" width="60.322" height="6.787" transform="translate(999.204 632.046)" fill="#a8ddf4"/>
        <rect id="Rectangle_2444" data-name="Rectangle 2444" width="60.322" height="6.787" transform="translate(999.204 651.299)" fill="#a8ddf4"/>
        <rect id="Rectangle_2445" data-name="Rectangle 2445" width="60.322" height="6.787" transform="translate(999.204 670.557)" fill="#a8ddf4"/>
        <rect id="Rectangle_2446" data-name="Rectangle 2446" width="60.322" height="6.787" transform="translate(999.204 689.814)" fill="#a8ddf4"/>
        <rect id="Rectangle_2447" data-name="Rectangle 2447" width="60.322" height="6.787" transform="translate(999.204 709.072)" fill="#a8ddf4"/>
        <rect id="Rectangle_2448" data-name="Rectangle 2448" width="60.322" height="6.787" transform="translate(999.204 728.33)" fill="#a8ddf4"/>
        <rect id="Rectangle_2449" data-name="Rectangle 2449" width="41.563" height="544.413" transform="translate(939.247 220.417)" fill="#a8ddf4"/>
        <rect id="Rectangle_2450" data-name="Rectangle 2450" width="97.104" height="544.413" transform="translate(1822.896 221.967)" fill="#c7ebff"/>
        <rect id="Rectangle_2451" data-name="Rectangle 2451" width="60.322" height="6.787" transform="translate(1841.289 248.449)" fill="#a8ddf4"/>
        <rect id="Rectangle_2452" data-name="Rectangle 2452" width="60.322" height="6.787" transform="translate(1841.289 267.706)" fill="#a8ddf4"/>
        <rect id="Rectangle_2453" data-name="Rectangle 2453" width="60.322" height="6.787" transform="translate(1841.289 286.964)" fill="#a8ddf4"/>
        <rect id="Rectangle_2454" data-name="Rectangle 2454" width="60.322" height="6.787" transform="translate(1841.289 306.222)" fill="#a8ddf4"/>
        <rect id="Rectangle_2455" data-name="Rectangle 2455" width="60.322" height="6.787" transform="translate(1841.289 325.479)" fill="#a8ddf4"/>
        <rect id="Rectangle_2456" data-name="Rectangle 2456" width="60.322" height="6.787" transform="translate(1841.289 344.737)" fill="#a8ddf4"/>
        <rect id="Rectangle_2457" data-name="Rectangle 2457" width="60.322" height="6.787" transform="translate(1841.289 363.995)" fill="#a8ddf4"/>
        <rect id="Rectangle_2458" data-name="Rectangle 2458" width="60.322" height="6.787" transform="translate(1841.289 383.252)" fill="#a8ddf4"/>
        <rect id="Rectangle_2459" data-name="Rectangle 2459" width="60.322" height="6.787" transform="translate(1841.289 402.51)" fill="#a8ddf4"/>
        <rect id="Rectangle_2460" data-name="Rectangle 2460" width="60.322" height="6.787" transform="translate(1841.289 421.763)" fill="#a8ddf4"/>
        <rect id="Rectangle_2461" data-name="Rectangle 2461" width="60.322" height="6.787" transform="translate(1841.289 441.02)" fill="#a8ddf4"/>
        <rect id="Rectangle_2462" data-name="Rectangle 2462" width="60.322" height="6.787" transform="translate(1841.289 460.278)" fill="#a8ddf4"/>
        <rect id="Rectangle_2463" data-name="Rectangle 2463" width="60.322" height="6.787" transform="translate(1841.289 479.536)" fill="#a8ddf4"/>
        <rect id="Rectangle_2464" data-name="Rectangle 2464" width="60.322" height="6.787" transform="translate(1841.289 498.793)" fill="#a8ddf4"/>
        <rect id="Rectangle_2465" data-name="Rectangle 2465" width="60.322" height="6.787" transform="translate(1841.289 518.051)" fill="#a8ddf4"/>
        <rect id="Rectangle_2466" data-name="Rectangle 2466" width="60.322" height="6.787" transform="translate(1841.289 537.309)" fill="#a8ddf4"/>
        <rect id="Rectangle_2467" data-name="Rectangle 2467" width="60.322" height="6.787" transform="translate(1841.289 556.566)" fill="#a8ddf4"/>
        <rect id="Rectangle_2468" data-name="Rectangle 2468" width="60.322" height="6.787" transform="translate(1841.289 575.824)" fill="#a8ddf4"/>
        <rect id="Rectangle_2469" data-name="Rectangle 2469" width="60.322" height="6.787" transform="translate(1841.289 595.081)" fill="#a8ddf4"/>
        <rect id="Rectangle_2470" data-name="Rectangle 2470" width="60.322" height="6.787" transform="translate(1841.289 614.339)" fill="#a8ddf4"/>
        <rect id="Rectangle_2471" data-name="Rectangle 2471" width="60.322" height="6.787" transform="translate(1841.289 633.597)" fill="#a8ddf4"/>
        <rect id="Rectangle_2472" data-name="Rectangle 2472" width="60.322" height="6.787" transform="translate(1841.289 652.85)" fill="#a8ddf4"/>
        <rect id="Rectangle_2473" data-name="Rectangle 2473" width="60.322" height="6.787" transform="translate(1841.289 672.107)" fill="#a8ddf4"/>
        <rect id="Rectangle_2474" data-name="Rectangle 2474" width="60.322" height="6.787" transform="translate(1841.289 691.365)" fill="#a8ddf4"/>
        <rect id="Rectangle_2475" data-name="Rectangle 2475" width="60.322" height="6.787" transform="translate(1841.289 729.88)" fill="#a8ddf4"/>
        <rect id="Rectangle_2476" data-name="Rectangle 2476" width="41.563" height="544.413" transform="translate(1781.337 221.967)" fill="#a8ddf4"/>
        <rect id="Rectangle_2477" data-name="Rectangle 2477" width="147.13" height="328.758" transform="translate(736.019 426.999)" fill="#c7ebff"/>
        <rect id="Rectangle_2478" data-name="Rectangle 2478" width="4.416" height="328.758" transform="translate(778.135 426.999)" fill="#a8ddf4"/>
        <rect id="Rectangle_2479" data-name="Rectangle 2479" width="4.416" height="328.758" transform="translate(758.272 426.999)" fill="#a8ddf4"/>
        <rect id="Rectangle_2480" data-name="Rectangle 2480" width="4.416" height="328.758" transform="translate(797.997 426.999)" fill="#a8ddf4"/>
        <rect id="Rectangle_2481" data-name="Rectangle 2481" width="44.506" height="328.758" transform="translate(691.514 426.999)" fill="#a8ddf4"/>
      </g>
      <path id="Path_15" data-name="Path 15" d="M423.992,168.064a62.165,62.165,0,0,0-51.753,3.7c-6.665,3.624-14.2,6.993-21.09,8.419a3.536,3.536,0,0,1-4.176-3.68c.02-.487.024-.975.024-1.47,0-23.232-20.2-42.072-45.132-42.072-.655,0-1.295.012-1.938.044a3.522,3.522,0,0,1-3.436-2.206c-9.334-24.019-34.024-41.189-63.026-41.189-35.471,0-64.5,25.685-66.862,58.187a3.531,3.531,0,0,1-3.928,3.293,35.382,35.382,0,0,0-4.443-.276c-14.864,0-27.419,9.206-31.459,21.841a3.587,3.587,0,0,1-3.86,2.385c-13.418-1.446-25.453,11.36-29.845,16.7a3.51,3.51,0,0,1-4.228.939c-2.957-1.411-7.564-3.6-14.6-6.917C50.738,174.693,45,202.58,43.689,213.2a3.517,3.517,0,0,0,3.452,3.956c38.635.46,357.679,4.16,372.04.18a3.648,3.648,0,0,1,1.395-.128l16.643,1.89a3.5,3.5,0,0,0,1.175-.06c3.832-.871,24.187-6.549,16.447-27.775-3.872-10.633-17.322-18.157-30.848-23.2" transform="translate(-164.201 114.618)" fill="url(#linear-gradient-2)"/>
      <path id="Path_16" data-name="Path 16" d="M703.3,195.747c-2.9-7.944-12.946-13.558-23.048-17.322a46.419,46.419,0,0,0-38.659,2.761c-4.983,2.7-10.609,5.222-15.759,6.285a2.635,2.635,0,0,1-3.117-2.745c.016-.364.02-.731.02-1.1,0-17.358-15.1-31.427-33.716-31.427-.487,0-.971.012-1.447.028a2.628,2.628,0,0,1-2.565-1.642c-6.977-17.941-25.421-30.768-47.082-30.768-26.5,0-48.181,19.184-49.951,43.462a2.62,2.62,0,0,1-2.929,2.457,26.668,26.668,0,0,0-3.324-.2c-11.1,0-20.478,6.885-23.491,16.319a2.693,2.693,0,0,1-2.889,1.782c-10.021-1.083-19.012,8.487-22.293,12.471a2.618,2.618,0,0,1-3.165.7c-2.206-1.055-5.646-2.685-10.9-5.163-17.553-8.271-21.837,12.563-22.82,20.494a2.631,2.631,0,0,0,2.581,2.953c28.866.348,267.187,3.109,277.919.132a2.775,2.775,0,0,1,1.043-.088l12.435,1.411a2.648,2.648,0,0,0,.871-.048c2.869-.651,18.065-4.891,12.291-20.75" transform="translate(1349.743 86.983)" fill="url(#linear-gradient-3)"/>
      <path id="Path_17" data-name="Path 17" d="M547.267,70.991a30.9,30.9,0,0,0-25.721,1.838,40.561,40.561,0,0,1-10.481,4.18,1.758,1.758,0,0,1-2.078-1.826c.012-.244.016-.483.016-.731,0-11.548-10.041-20.91-22.432-20.91-.324,0-.643.008-.963.02a1.748,1.748,0,0,1-1.706-1.095C479.262,40.535,466.991,32,452.579,32c-17.625,0-32.054,12.763-33.229,28.914a1.75,1.75,0,0,1-1.95,1.638,17.448,17.448,0,0,0-2.21-.14,16.208,16.208,0,0,0-15.632,10.861,1.789,1.789,0,0,1-1.918,1.183c-6.669-.719-12.651,5.646-14.832,8.3a1.74,1.74,0,0,1-2.1.467c-1.471-.7-3.756-1.786-7.256-3.432-11.68-5.5-14.529,8.359-15.184,13.634a1.753,1.753,0,0,0,1.718,1.966c19.2.232,177.753,2.066,184.893.088a1.828,1.828,0,0,1,.691-.06l8.271.939a1.9,1.9,0,0,0,.583-.032c1.906-.436,12.019-3.257,8.171-13.805-1.926-5.282-8.611-9.018-15.328-11.524" transform="translate(1008.25 -7)" fill="url(#linear-gradient-4)"/>
      <path id="Path_18" data-name="Path 18" d="M372.373,74.38a30.9,30.9,0,0,0-25.721,1.838,40.563,40.563,0,0,1-10.481,4.18,1.758,1.758,0,0,1-2.078-1.826c.012-.244.016-.483.016-.731,0-11.548-10.041-20.91-22.432-20.91-.324,0-.643.008-.963.02a1.734,1.734,0,0,1-1.7-1.095c-4.643-11.931-16.914-20.466-31.327-20.466-17.625,0-32.054,12.763-33.229,28.914a1.746,1.746,0,0,1-1.95,1.638,17.45,17.45,0,0,0-2.21-.14,16.214,16.214,0,0,0-15.632,10.861,1.789,1.789,0,0,1-1.918,1.183c-6.669-.719-12.651,5.646-14.832,8.3a1.74,1.74,0,0,1-2.1.468c-1.47-.7-3.756-1.786-7.256-3.432-11.68-5.5-14.529,8.359-15.184,13.634a1.753,1.753,0,0,0,1.718,1.966c19.2.232,177.753,2.066,184.893.088a1.828,1.828,0,0,1,.691-.06l8.271.939a1.9,1.9,0,0,0,.583-.032c1.906-.436,12.019-3.257,8.175-13.805-1.93-5.282-8.611-9.018-15.332-11.524" transform="translate(484.304 3.153)" fill="url(#linear-gradient-5)"/>
    </g>
  </g>
</svg>
