<svg
                width="32"
                height="32"
                viewBox="0 0 32 32"
                fill="none"
                xmlns="http://www.w3.org/2000/svg"
                class="transition-transform duration-300 transform group-hover:scale-110"
              >
                <path
                  fill-rule="evenodd"
                  clip-rule="evenodd"
                  d="M15.9999 6.45635e-05C18.98 0.0340705 21.6722 0.766489 24.0765 2.19732C26.4521 3.59955 28.4283 5.58779 29.816 7.97191C31.2381 10.3907 31.9661 13.0992 32 16.0974C31.9155 20.1996 30.6217 23.7033 28.1184 26.6084C25.615 29.5137 22.4089 31.3109 19.09 31.9999V20.4987H22.2278L22.9374 15.9789H18.186V13.0186C18.1596 12.4049 18.3537 11.802 18.7332 11.3189C19.1131 10.8345 19.7823 10.58 20.7406 10.5552H23.6098V6.59596C23.5686 6.58271 23.1779 6.53032 22.4378 6.43881C21.5985 6.34059 20.7544 6.28813 19.9093 6.28165C17.9967 6.29047 16.4841 6.83 15.3714 7.90024C14.2587 8.97014 13.6903 10.5181 13.6662 12.544V15.9789H10.0504V20.4987H13.6662V32C9.59103 31.3111 6.38489 29.5137 3.88158 26.6086C1.37827 23.7034 0.0844552 20.1996 0 16.0974C0.0337907 13.099 0.761776 10.3906 2.18395 7.97191C3.57169 5.58777 5.54786 3.59951 7.92349 2.19726C10.3277 0.766726 13.0199 0.0343718 15.9999 6.45635e-05Z"
                  fill="white"></path>
              </svg>