<svg
                width="32"
                height="32"
                viewBox="0 0 32 32"
                fill="none"
                xmlns="http://www.w3.org/2000/svg"
              >
                <path
                  d="M31.9127 9.40812C31.8377 7.70779 31.5627 6.53893 31.1688 5.52598C30.7624 4.45082 30.1373 3.48826 29.3184 2.68804C28.5181 1.87537 27.5492 1.24387 26.4865 0.843918C25.4678 0.45009 24.3049 0.175035 22.6046 0.100145C20.8916 0.0187537 20.3478 0 16.0032 0C11.6586 0 11.1148 0.0187537 9.40812 0.0937687C7.70785 0.168784 6.53893 0.443963 5.52629 0.837542C4.45082 1.24387 3.48826 1.869 2.68804 2.68804C1.87537 3.48819 1.24419 4.45714 0.843918 5.51985C0.45009 6.53893 0.175097 7.70153 0.100145 9.40175C0.0188163 11.1148 0 11.6586 0 16.0032C0 20.3478 0.0188162 20.8917 0.0937687 22.5983C0.168784 24.2986 0.443963 25.4674 0.837854 26.4804C1.24419 27.5555 1.87537 28.5181 2.68804 29.3183C3.48826 30.131 4.4572 30.7625 5.51991 31.1625C6.53887 31.5563 7.70147 31.8313 9.40206 31.9062C11.1084 31.9815 11.6525 32 15.9971 32C20.3417 32 20.8855 31.9815 22.5922 31.9062C24.2925 31.8313 25.4614 31.5563 26.474 31.1625C27.5376 30.7512 28.5035 30.1223 29.3098 29.3161C30.1161 28.5098 30.7451 27.5439 31.1564 26.4804C31.55 25.4614 31.8252 24.2985 31.9002 22.5983C31.9752 20.8917 31.9939 20.3478 31.9939 16.0032C31.9939 11.6586 31.9876 11.1147 31.9127 9.40812ZM29.031 22.4732C28.9621 24.036 28.6996 24.88 28.4808 25.4426C27.9431 26.8366 26.8367 27.9431 25.4426 28.4808C24.88 28.6996 24.03 28.9621 22.4732 29.0307C20.7854 29.1059 20.2792 29.1244 16.0096 29.1244C11.7399 29.1244 11.2274 29.1059 9.54559 29.0307C7.98278 28.9621 7.13886 28.6996 6.57625 28.4808C5.88255 28.2244 5.25111 27.818 4.73851 27.2867C4.20715 26.7678 3.80082 26.1427 3.54439 25.4489C3.3256 24.8863 3.06311 24.036 2.99453 22.4796C2.91927 20.7918 2.90077 20.2853 2.90077 16.0156C2.90077 11.746 2.91927 11.2334 2.99453 9.55196C3.06311 7.98915 3.3256 7.14524 3.54439 6.58262C3.80082 5.88861 4.20715 5.2573 4.74488 4.74457C5.26349 4.21321 5.88861 3.80688 6.58262 3.55077C7.14524 3.33198 7.99553 3.06942 9.55197 3.0006C11.2398 2.92558 11.7463 2.90683 16.0156 2.90683C20.2917 2.90683 20.7978 2.92558 22.4796 3.0006C24.0424 3.06949 24.8863 3.33191 25.4489 3.55071C26.1426 3.80688 26.7741 4.21321 27.2867 4.74457C27.818 5.26349 28.2244 5.88861 28.4808 6.58262C28.6996 7.14524 28.9621 7.99522 29.0309 9.55196C29.1059 11.2398 29.1247 11.746 29.1247 16.0156C29.1247 20.2853 29.106 20.7854 29.031 22.4732Z"
                  fill="white"></path>
                <path
                  d="M16.0033 7.78279C11.465 7.78279 7.78287 11.4647 7.78287 16.0032C7.78287 20.5417 11.465 24.2236 16.0033 24.2236C20.5417 24.2236 24.2236 20.5417 24.2236 16.0032C24.2236 11.4647 20.5417 7.78279 16.0033 7.78279ZM16.0033 21.3355C13.059 21.3355 10.6708 18.9476 10.6708 16.0032C10.6708 13.0587 13.059 10.6709 16.0032 10.6709C18.9477 10.6709 21.3356 13.0587 21.3356 16.0032C21.3356 18.9476 18.9476 21.3355 16.0033 21.3355ZM26.468 7.45773C26.468 8.51756 25.6086 9.37686 24.5486 9.37686C23.4888 9.37686 22.6295 8.51756 22.6295 7.45773C22.6295 6.39776 23.4888 5.53872 24.5486 5.53872C25.6086 5.53872 26.468 6.3977 26.468 7.45773Z"
                  fill="white"></path>
              </svg>