<svg width="16" height="17" viewBox="0 0 16 17" fill="none" xmlns="http://www.w3.org/2000/svg">
<path d="M6.44048 13.3742C7.87079 13.3743 9.26022 12.897 10.3886 12.0181L14.6458 16.2753C14.9638 16.5824 15.4706 16.5736 15.7777 16.2556C16.0773 15.9454 16.0773 15.4536 15.7777 15.1434L11.5206 10.8862C13.7015 8.07875 13.1936 4.03486 10.3862 1.85393C7.57871 -0.327011 3.53487 0.180854 1.35393 2.98831C-0.827011 5.79577 -0.319146 9.83965 2.48831 12.0206C3.61857 12.8986 5.00924 13.3749 6.44048 13.3742ZM3.01989 3.51743C4.90905 1.62824 7.97198 1.6282 9.86118 3.51736C11.7504 5.40652 11.7504 8.46945 9.86125 10.3586C7.97209 12.2478 4.90916 12.2479 3.01996 10.3587L3.01989 10.3586C1.13073 8.48325 1.1196 5.43149 2.995 3.54233L3.01989 3.51743Z" fill="#25282B"/>
</svg>
