<svg width="18" height="17" viewBox="0 0 18 17" fill="none" xmlns="http://www.w3.org/2000/svg">
<path d="M9.94868 0.846048C9.64478 -0.0656486 8.35522 -0.0656463 8.05132 0.84605L6.72792 4.81623C6.59181 5.22457 6.20967 5.5 5.77924 5.5H1.85078C0.905503 5.5 0.487948 6.69036 1.22609 7.28087L4.70551 10.0644C5.03266 10.3261 5.16199 10.764 5.0295 11.1615L3.82082 14.7875C3.50569 15.7329 4.61606 16.5072 5.3942 15.8846L8.3753 13.4998C8.74052 13.2076 9.25948 13.2076 9.62469 13.4998L12.6058 15.8846C13.3839 16.5072 14.4943 15.7329 14.1792 14.7875L12.9705 11.1615C12.838 10.764 12.9673 10.3261 13.2945 10.0644L16.7739 7.28087C17.5121 6.69036 17.0945 5.5 16.1492 5.5H12.2208C11.7903 5.5 11.4082 5.22457 11.2721 4.81623L9.94868 0.846048Z" fill="#FDCC0D"/>
</svg>
