<svg width="80" height="80" viewBox="0 0 80 80" fill="none" xmlns="http://www.w3.org/2000/svg">
<circle cx="40" cy="40" r="40" fill="#E9F6FF"/>
<path d="M51.272 58.9278C50.7635 58.4193 50.4171 57.7715 50.2768 57.0661C50.1365 56.3608 50.2085 55.6297 50.4837 54.9653C50.7589 54.3009 51.225 53.7331 51.823 53.3336C52.4209 52.9341 53.1239 52.721 53.8431 52.7211H32.3072C32.905 52.7211 33.4936 52.8687 34.0208 53.1505C34.5481 53.4324 34.9976 53.84 35.3298 54.3371C35.6619 54.8342 35.8663 55.4056 35.9248 56.0005C35.9834 56.5955 35.8943 57.1958 35.6655 57.7481C35.4367 58.3004 35.0753 58.7878 34.6131 59.1671C34.151 59.5464 33.6024 59.8058 33.0161 59.9225C32.4297 60.0392 31.8236 60.0094 31.2515 59.8359C30.6794 59.6624 30.1589 59.3505 29.7361 58.9278C29.2275 58.4193 28.8812 57.7715 28.7409 57.0661C28.6005 56.3608 28.6725 55.6297 28.9478 54.9653C29.223 54.3009 29.689 53.7331 30.287 53.3336C30.885 52.9341 31.588 52.721 32.3072 52.7211H30.7683C30.559 52.7191 30.3528 52.6696 30.1654 52.5762C29.9779 52.4828 29.8142 52.3481 29.6866 52.1821C29.3839 51.8259 29.2214 51.3716 29.2295 50.9042C29.2566 50.5184 29.346 50.1396 29.4942 49.7824C29.6707 49.3 29.9069 48.7369 30.2027 48.0932C30.4985 47.4494 30.6629 47.0895 30.696 47.0133L26.4413 23.6357H21.5392C21.3298 23.6339 21.1236 23.5845 20.9361 23.4911C20.7487 23.3977 20.585 23.2629 20.4574 23.0968C20.1543 22.7408 19.9917 22.2863 20.0004 21.8189C19.9912 21.3507 20.1538 20.8955 20.4574 20.539C20.585 20.373 20.7487 20.2381 20.9361 20.1447C21.1236 20.0513 21.3298 20.0019 21.5392 20.0001H27.6926C27.9351 19.9974 28.1735 20.0635 28.3801 20.1905C28.5685 20.3028 28.7318 20.4525 28.86 20.6305C29.0001 20.8443 29.1055 21.0789 29.1724 21.3256C29.2499 21.5751 29.3103 21.8297 29.3533 22.0874C29.385 22.2956 29.4288 22.5749 29.4847 22.9254C29.5406 23.2758 29.5768 23.517 29.5933 23.6491H58.4557C58.6652 23.6507 58.8715 23.7001 59.0589 23.7935C59.2464 23.8869 59.4101 24.0219 59.5375 24.188C59.8405 24.5441 60.0031 24.9985 59.9946 25.466V39.9972C60.0026 40.4304 59.8688 40.8544 59.6137 41.2046C59.501 41.3693 59.3553 41.5088 59.1858 41.614C59.0163 41.7193 58.8267 41.7881 58.6291 41.816L33.5317 45.2802C33.547 45.4072 33.5832 45.6103 33.6403 45.8897C33.6974 46.169 33.7457 46.4229 33.785 46.6515C33.8234 46.8575 33.8438 47.0665 33.846 47.2761C33.7509 47.9077 33.5581 48.5207 33.2746 49.093H55.3857C55.5951 49.0947 55.8014 49.1441 55.9889 49.2375C56.1763 49.3309 56.34 49.4658 56.4675 49.632C56.7632 49.9926 56.9248 50.4445 56.9248 50.9108C56.9248 51.3772 56.7632 51.8291 56.4675 52.1897C56.3399 52.3558 56.1762 52.4906 55.9888 52.584C55.8014 52.6774 55.5951 52.7269 55.3857 52.7287H53.8431C54.4409 52.7288 55.0295 52.8763 55.5568 53.1582C56.084 53.44 56.5336 53.8476 56.8657 54.3447C57.1978 54.8418 57.4022 55.4132 57.4608 56.0082C57.5193 56.6031 57.4303 57.2034 57.2015 57.7557C56.9727 58.3081 56.6112 58.7954 56.149 59.1747C55.6869 59.554 55.1384 59.8135 54.552 59.9301C53.9656 60.0468 53.3596 60.017 52.7874 59.8435C52.2153 59.67 51.6948 59.3581 51.272 58.9354V58.9278Z" fill="#195279"/>
</svg>
