<svg width="16" height="17" viewBox="0 0 16 17" fill="none" xmlns="http://www.w3.org/2000/svg">
<path d="M8 0.607841C3.589 0.607841 0 4.19684 0 8.60784C0 13.0188 3.589 16.6078 8 16.6078C12.411 16.6078 16 13.0188 16 8.60784C16 4.19684 12.411 0.607841 8 0.607841ZM8 15.6078C4.14 15.6078 1 12.4678 1 8.60784C1 4.74784 4.14 1.60784 8 1.60784C11.86 1.60784 15 4.74784 15 8.60784C15 12.4678 11.86 15.6078 8 15.6078ZM12 9.10784C12 9.24045 11.9473 9.36763 11.8536 9.46139C11.7598 9.55516 11.6326 9.60784 11.5 9.60784H7.5C7.36739 9.60784 7.24022 9.55516 7.14645 9.46139C7.05268 9.36763 7 9.24045 7 9.10784V5.10784C7 4.97523 7.05268 4.84805 7.14645 4.75429C7.24022 4.66052 7.36739 4.60784 7.5 4.60784C7.63261 4.60784 7.75979 4.66052 7.85356 4.75429C7.94732 4.84805 8 4.97523 8 5.10784V8.60784H11.5C11.6326 8.60784 11.7598 8.66052 11.8536 8.75429C11.9473 8.84805 12 8.97523 12 9.10784Z" fill="#195279"/>
</svg>
