<svg version="1.1" xmlns="http://www.w3.org/2000/svg" xmlns:xlink="http://www.w3.org/1999/xlink" x="0px" y="0px" viewBox="0 0 256 256" enable-background="new 0 0 256 256" xml:space="preserve"> <g> <g> <path fill="#195279" d="M130.6,12.2l114.3,114.3c2.5,2.5,0.7,6.7-2.8,6.7h-22.3c-2.1,0-3.9,1.8-3.9,3.9V241c0,2.1-1.8,3.9-3.9,3.9h-59.8c-2.1,0-3.9-1.8-3.9-3.9v-57.5c0-2.1-1.8-3.9-3.9-3.9h-32.9c-2.1,0-3.9,1.8-3.9,3.9V241c0,2.1-1.8,3.9-3.9,3.9H43.8c-2.1,0-3.9-1.8-3.9-3.9V136.9c0-2.1-1.8-3.9-3.9-3.9H13.9c-3.5,0-5.2-4.2-2.8-6.7L125,12.2C126.6,10.7,129.1,10.7,130.6,12.2z"></path> </g> </g> </svg>