<svg width="20" height="20" viewBox="0 0 20 20" fill="none" xmlns="http://www.w3.org/2000/svg">
<path d="M10.9487 2.84605C10.6448 1.93435 9.35522 1.93435 9.05132 2.84605L7.72792 6.81623C7.59181 7.22457 7.20967 7.5 6.77924 7.5H2.85078C1.9055 7.5 1.48795 8.69036 2.22609 9.28087L5.70551 12.0644C6.03266 12.3261 6.16199 12.764 6.0295 13.1615L4.82082 16.7875C4.50569 17.7329 5.61606 18.5072 6.3942 17.8846L9.3753 15.4998C9.74052 15.2076 10.2595 15.2076 10.6247 15.4998L13.6058 17.8846C14.3839 18.5072 15.4943 17.7329 15.1792 16.7875L13.9705 13.1615C13.838 12.764 13.9673 12.3261 14.2945 12.0644L17.7739 9.28087C18.5121 8.69036 18.0945 7.5 17.1492 7.5H13.2208C12.7903 7.5 12.4082 7.22457 12.2721 6.81623L10.9487 2.84605Z" fill="#FDCC0D"/>
<mask id="mask0_1_67" style="mask-type:alpha" maskUnits="userSpaceOnUse" x="1" y="2" width="18" height="17">
<path d="M10.9487 2.84605C10.6448 1.93435 9.35522 1.93435 9.05132 2.84605L7.72792 6.81623C7.59181 7.22457 7.20967 7.5 6.77924 7.5H2.85078C1.9055 7.5 1.48795 8.69036 2.22609 9.28087L5.70551 12.0644C6.03266 12.3261 6.16199 12.764 6.0295 13.1615L4.82082 16.7875C4.50569 17.7329 5.61606 18.5072 6.3942 17.8846L9.3753 15.4998C9.74052 15.2076 10.2595 15.2076 10.6247 15.4998L13.6058 17.8846C14.3839 18.5072 15.4943 17.7329 15.1792 16.7875L13.9705 13.1615C13.838 12.764 13.9673 12.3261 14.2945 12.0644L17.7739 9.28087C18.5121 8.69036 18.0945 7.5 17.1492 7.5H13.2208C12.7903 7.5 12.4082 7.22457 12.2721 6.81623L10.9487 2.84605Z" fill="#FDCC0D"/>
</mask>
<g mask="url(#mask0_1_67)">
<rect x="10" y="2" width="9" height="16" fill="#D9D9D9"/>
</g>
</svg>