<svg width="16" height="16" viewBox="0 0 16 16" fill="none" xmlns="http://www.w3.org/2000/svg">
<path d="M3.78438 16L5.84152 12.9935C6.91601 13.4582 8.11172 13.5638 9.25103 13.2948C10.3903 13.0257 11.4125 12.3963 12.1656 11.5001C12.9187 10.6039 13.3626 9.48859 13.4314 8.31996C13.5001 7.15133 13.1901 5.9917 12.5473 5.01332C11.9045 4.03494 10.9632 3.29001 9.86334 2.8892C8.76344 2.48839 7.56359 2.45307 6.44203 2.7885C5.32047 3.12393 4.33702 3.8122 3.63779 4.75108C2.93856 5.68996 2.56085 6.82935 2.56076 8C2.56076 8.18184 2.56965 8.3614 2.58743 8.53867H2.58362V16H0V8C0 6.41775 0.469192 4.87103 1.34824 3.55544C2.22729 2.23985 3.47672 1.21447 4.93853 0.608967C6.40034 0.00346624 8.00887 -0.15496 9.56072 0.153721C11.1126 0.462403 12.538 1.22433 13.6569 2.34315C14.7757 3.46197 15.5376 4.88743 15.8463 6.43928C16.155 7.99113 15.9965 9.59966 15.391 11.0615C14.7855 12.5233 13.7602 13.7727 12.4446 14.6518C11.129 15.5308 9.58225 16 8 16H3.78438ZM9.456 8C9.456 7.89301 9.48773 7.78842 9.54717 7.69946C9.60661 7.61051 9.69109 7.54117 9.78994 7.50023C9.88878 7.45928 9.99755 7.44857 10.1025 7.46944C10.2074 7.49032 10.3038 7.54184 10.3795 7.61749C10.4551 7.69314 10.5066 7.78953 10.5275 7.89447C10.5484 7.9994 10.5377 8.10817 10.4967 8.20702C10.4558 8.30586 10.3864 8.39035 10.2975 8.44979C10.2085 8.50923 10.1039 8.54095 9.99695 8.54095C9.92591 8.54095 9.85557 8.52696 9.78994 8.49978C9.72431 8.47259 9.66467 8.43274 9.61444 8.38251C9.56421 8.33228 9.52436 8.27265 9.49718 8.20702C9.46999 8.14138 9.456 8.07104 9.456 8ZM7.48114 8C7.48114 7.89301 7.51287 7.78842 7.57231 7.69946C7.63175 7.61051 7.71623 7.54117 7.81508 7.50023C7.91393 7.45928 8.02269 7.44857 8.12763 7.46944C8.23256 7.49032 8.32895 7.54184 8.40461 7.61749C8.48026 7.69314 8.53178 7.78953 8.55265 7.89447C8.57353 7.9994 8.56281 8.10817 8.52187 8.20702C8.48093 8.30586 8.41159 8.39035 8.32263 8.44979C8.23367 8.50923 8.12908 8.54095 8.02209 8.54095C7.95106 8.54095 7.88071 8.52696 7.81508 8.49978C7.74945 8.47259 7.68982 8.43274 7.63958 8.38251C7.58935 8.33228 7.54951 8.27265 7.52232 8.20702C7.49513 8.14138 7.48114 8.07104 7.48114 8ZM5.46133 8C5.46133 7.89301 5.49306 7.78842 5.5525 7.69946C5.61194 7.61051 5.69643 7.54117 5.79527 7.50023C5.89412 7.45928 6.00288 7.44857 6.10782 7.46944C6.21275 7.49032 6.30914 7.54184 6.3848 7.61749C6.46045 7.69314 6.51197 7.78953 6.53284 7.89447C6.55372 7.9994 6.543 8.10817 6.50206 8.20702C6.46112 8.30586 6.39178 8.39035 6.30282 8.44979C6.21386 8.50923 6.10927 8.54095 6.00228 8.54095C5.85895 8.54075 5.72155 8.48367 5.62027 8.38224C5.51898 8.28082 5.46133 8.14334 5.46133 8Z" fill="#195279"/>
</svg>
