<svg width="16" height="16" viewBox="0 0 16 16" fill="none" xmlns="http://www.w3.org/2000/svg">
<path d="M12.5088 15.5711C12.3054 15.3677 12.1668 15.1086 12.1107 14.8265C12.0546 14.5443 12.0834 14.2519 12.1935 13.9861C12.3036 13.7204 12.49 13.4932 12.7292 13.3334C12.9684 13.1737 13.2496 13.0884 13.5372 13.0884H4.92286C5.162 13.0885 5.39744 13.1475 5.60834 13.2602C5.81923 13.373 5.99906 13.536 6.1319 13.7348C6.26474 13.9337 6.3465 14.1622 6.36993 14.4002C6.39336 14.6382 6.35773 14.8783 6.26621 15.0992C6.17469 15.3202 6.0301 15.5151 5.84525 15.6668C5.66039 15.8186 5.44097 15.9223 5.20643 15.969C4.97188 16.0157 4.72945 16.0038 4.5006 15.9344C4.27176 15.865 4.06355 15.7402 3.89444 15.5711C3.69102 15.3677 3.55248 15.1086 3.49635 14.8265C3.44022 14.5443 3.46902 14.2519 3.5791 13.9861C3.68919 13.7204 3.87562 13.4932 4.11481 13.3334C4.354 13.1737 4.63521 13.0884 4.92286 13.0884H4.30733C4.22358 13.0876 4.14111 13.0678 4.06614 13.0305C3.99118 12.9931 3.92569 12.9392 3.87463 12.8728C3.75354 12.7304 3.68854 12.5486 3.6918 12.3617C3.70265 12.2074 3.73841 12.0558 3.79769 11.913C3.86828 11.72 3.96275 11.4947 4.08108 11.2373C4.19941 10.9798 4.26518 10.8358 4.27838 10.8053L2.57654 1.4543H0.615676C0.531916 1.45358 0.44942 1.43379 0.374447 1.39644C0.299475 1.35908 0.233995 1.30514 0.182977 1.23871C0.0617035 1.09634 -0.00332314 0.914533 0.000146191 0.727544C-0.00351014 0.540295 0.0615281 0.358188 0.182977 0.215619C0.233995 0.149185 0.299475 0.0952452 0.374447 0.0578908C0.44942 0.0205365 0.531916 0.000749357 0.615676 3.07535e-05H3.07703C3.17405 -0.00103021 3.2694 0.02538 3.35204 0.0762102C3.42739 0.121124 3.49273 0.181017 3.54401 0.252185C3.60003 0.337716 3.6422 0.431557 3.66895 0.53024C3.69994 0.630057 3.72412 0.731864 3.74132 0.834957C3.75401 0.918247 3.77154 1.02998 3.79388 1.17015C3.81623 1.31032 3.8307 1.40681 3.8373 1.45963H15.3823C15.4661 1.46029 15.5486 1.48005 15.6236 1.51741C15.6985 1.55477 15.764 1.60874 15.815 1.67522C15.9362 1.81762 16.0012 1.9994 15.9978 2.18638V7.99887C16.001 8.17217 15.9475 8.34176 15.8455 8.48185C15.8004 8.54774 15.7421 8.60351 15.6743 8.64562C15.6065 8.68772 15.5307 8.71523 15.4516 8.72639L5.4127 10.1121C5.41879 10.1629 5.43326 10.2441 5.45612 10.3559C5.47897 10.4676 5.49827 10.5692 5.51401 10.6606C5.52936 10.743 5.53752 10.8266 5.53839 10.9105C5.50036 11.1631 5.42325 11.4083 5.30985 11.6372H14.1543C14.2381 11.6379 14.3206 11.6576 14.3956 11.695C14.4705 11.7323 14.536 11.7863 14.587 11.8528C14.7053 11.997 14.7699 12.1778 14.7699 12.3643C14.7699 12.5509 14.7053 12.7316 14.587 12.8759C14.536 12.9423 14.4705 12.9963 14.3955 13.0336C14.3205 13.071 14.238 13.0907 14.1543 13.0915H13.5372C13.7764 13.0915 14.0118 13.1505 14.2227 13.2633C14.4336 13.376 14.6134 13.539 14.7463 13.7379C14.8791 13.9367 14.9609 14.1653 14.9843 14.4033C15.0077 14.6413 14.9721 14.8813 14.8806 15.1023C14.7891 15.3232 14.6445 15.5182 14.4596 15.6699C14.2748 15.8216 14.0553 15.9254 13.8208 15.972C13.5863 16.0187 13.3438 16.0068 13.115 15.9374C12.8861 15.868 12.6779 15.7432 12.5088 15.5742V15.5711Z" fill="#195279"/>
</svg>
