<svg width="16" height="16" viewBox="0 0 16 16" fill="none" xmlns="http://www.w3.org/2000/svg">
<path d="M13.5381 15.9996C13.3467 16.0024 13.1568 15.9659 12.9801 15.8925C12.8033 15.8191 12.6434 15.7104 12.5103 15.5729C12.3728 15.4398 12.2639 15.2798 12.1904 15.1031C12.1169 14.9263 12.0803 14.7365 12.0829 14.5451C12.0804 14.3536 12.1171 14.1639 12.1906 13.987C12.2641 13.8102 12.3728 13.6502 12.5103 13.5168C12.6436 13.3795 12.8034 13.2706 12.9802 13.1972C13.1569 13.1239 13.3468 13.0875 13.5381 13.0901H4.92343C5.11473 13.0878 5.3045 13.1243 5.48119 13.1976C5.65788 13.271 5.8178 13.3797 5.95122 13.5168C6.08853 13.6502 6.19719 13.8102 6.27055 13.987C6.34391 14.1639 6.38043 14.3536 6.37788 14.5451C6.38055 14.7364 6.34408 14.9263 6.27071 15.1031C6.19734 15.2798 6.08862 15.4397 5.95122 15.5729C5.81796 15.7103 5.65807 15.8191 5.48134 15.8925C5.30462 15.9659 5.11477 16.0022 4.92343 15.9996C4.73195 16.0025 4.54192 15.9662 4.36503 15.8929C4.18815 15.8195 4.02815 15.7105 3.89489 15.5729C3.75749 15.4397 3.64876 15.2798 3.57539 15.1031C3.50203 14.9263 3.46556 14.7364 3.46823 14.5451C3.46568 14.3536 3.5022 14.1639 3.57556 13.987C3.64892 13.8102 3.75757 13.6502 3.89489 13.5168C4.02828 13.3795 4.18831 13.2706 4.36516 13.1972C4.54202 13.1239 4.73198 13.0875 4.92343 13.0901H4.30783C4.22426 13.0893 4.14196 13.0693 4.06714 13.0321C3.99231 12.9949 3.9269 12.9412 3.87584 12.8751C3.75492 12.7325 3.68994 12.5509 3.69299 12.3639C3.70375 12.2096 3.73952 12.0581 3.79889 11.9153C3.8667 11.7286 3.95965 11.5075 4.08231 11.2386L4.18212 11.0206L4.18669 11.0117C4.24002 10.8966 4.27202 10.8265 4.2804 10.8059L2.57682 1.45534H0.614964C0.531301 1.45419 0.448982 1.43403 0.374171 1.39656C0.299361 1.35909 0.233997 1.30514 0.182975 1.23883C0.0618102 1.09637 -0.003207 0.914666 0.000121772 0.727678C-0.003207 0.540689 0.0618102 0.358989 0.182975 0.216529C0.233881 0.15009 0.299221 0.0959071 0.374057 0.0584228C0.448894 0.0209385 0.531271 0.000996546 0.614964 1.64871e-05H3.07738C3.1739 -0.000757283 3.26868 0.0257197 3.3509 0.0762796C3.42637 0.121369 3.49173 0.181491 3.54289 0.252987C3.59942 0.338254 3.64163 0.431996 3.66784 0.530882C3.6988 0.630722 3.72298 0.732836 3.74022 0.835934C3.75318 0.919742 3.7707 1.03093 3.79279 1.17112C3.81489 1.31131 3.83013 1.41102 3.83546 1.46055H15.3841C15.4678 1.46147 15.5502 1.48147 15.6251 1.51895C15.6999 1.55644 15.7653 1.61058 15.8161 1.67706C15.937 1.81966 16.002 2.00127 15.999 2.18821V8.00578C16.002 8.17906 15.9485 8.34882 15.8466 8.48903C15.8015 8.55486 15.7432 8.61061 15.6753 8.65271C15.6075 8.69481 15.5317 8.72219 15.4527 8.73344L5.41409 10.1203C5.41866 10.1569 5.42933 10.2299 5.45675 10.3647C5.4819 10.4859 5.50018 10.5818 5.51466 10.6694C5.53032 10.7515 5.53848 10.835 5.53904 10.9187C5.50064 11.1715 5.42355 11.417 5.31047 11.6463H14.156C14.2397 11.6472 14.3221 11.6669 14.397 11.7044C14.4718 11.7418 14.5371 11.7959 14.588 11.8625C14.7096 12.0046 14.7747 12.1869 14.7708 12.374C14.7739 12.5609 14.7089 12.7425 14.588 12.8851C14.5369 12.9513 14.4715 13.0049 14.3967 13.0421C14.3218 13.0793 14.2395 13.099 14.156 13.0998H13.5411C13.7325 13.0975 13.9224 13.1343 14.0992 13.2077C14.2761 13.281 14.4361 13.3893 14.5697 13.5265C14.7066 13.6601 14.8149 13.8203 14.888 13.9971C14.9611 14.1739 14.9974 14.3638 14.9948 14.5551C14.9975 14.7463 14.9612 14.936 14.8881 15.1128C14.815 15.2895 14.7067 15.4495 14.5697 15.583C14.4351 15.719 14.2742 15.826 14.0968 15.8977C13.9195 15.9694 13.7293 16.004 13.5381 15.9996ZM8.62163 2.60859C8.52899 2.62024 8.44385 2.66552 8.3824 2.73581L6.90967 4.17365V7.63711C6.90884 7.6842 6.91745 7.73105 6.93498 7.77476C6.95252 7.81846 6.97862 7.85812 7.01176 7.89157C7.07911 7.95962 7.1705 7.99854 7.26623 7.99983H12.5316C12.626 8.00006 12.7167 7.9633 12.7843 7.89752C12.8519 7.83174 12.8911 7.74222 12.8935 7.6479V2.84779C12.8935 2.84779 12.8989 2.83654 12.8989 2.82435C12.8982 2.79371 12.8912 2.76358 12.8782 2.73581C12.8652 2.70805 12.8466 2.68305 12.8235 2.6629C12.8004 2.64275 12.7734 2.62773 12.7441 2.61863C12.7148 2.60953 12.684 2.60657 12.6535 2.61007C12.5603 2.62137 12.4746 2.66668 12.4128 2.7373L10.9096 4.17514H10.8616V2.8463C10.8618 2.7849 10.838 2.72599 10.7953 2.68187C10.7526 2.63775 10.6944 2.61186 10.633 2.61007H10.6239C10.5307 2.62137 10.4449 2.66668 10.3831 2.7373L8.91115 4.15914H8.86239V2.84779C8.86327 2.81718 8.85799 2.78704 8.84687 2.75851C8.83574 2.72998 8.819 2.70381 8.79763 2.68187C8.75433 2.63728 8.6952 2.61136 8.63306 2.61007L8.62163 2.60859Z" fill="#195279"/>
</svg>
